ISO-10303-21;
HEADER;
FILE_DESCRIPTION (( 'STEP AP214' ),
    '1' );
FILE_NAME ('SFH 4556.STEP',
    '2025-03-23T16:07:14',
    ( 'LENOVO' ),
    ( '' ),
    'SwSTEP 2.0',
    'SolidWorks 2021',
    '' );
FILE_SCHEMA (( 'AUTOMOTIVE_DESIGN' ));
ENDSEC;

DATA;
#1 = UNCERTAINTY_MEASURE_WITH_UNIT (LENGTH_MEASURE( 1.000000000000000082E-05 ), #627, 'distance_accuracy_value', 'NONE');
#2 = DIRECTION ( 'NONE',  ( 0.000000000000000000, -1.000000000000000000, -0.000000000000000000 ) ) ;
#3 = ADVANCED_FACE ( 'NONE', ( #970 ), #807, .T. ) ;
#4 = CARTESIAN_POINT ( 'NONE',  ( -1.519999999999996687, -29.00000000000000000, 0.2500000000000000000 ) ) ;
#5 = AXIS2_PLACEMENT_3D ( 'NONE', #504, #791, #997 ) ;
#6 = DIRECTION ( 'NONE',  ( -1.196361017915039732E-16, -1.000000000000000000, 0.000000000000000000 ) ) ;
#7 = CARTESIAN_POINT ( 'NONE',  ( 3.367778697655221012E-16, 0.000000000000000000, 2.750000000000000000 ) ) ;
#8 = DIRECTION ( 'NONE',  ( -1.000000000000000000, -1.196361017915039732E-16, 0.000000000000000000 ) ) ;
#9 = DIRECTION ( 'NONE',  ( 0.000000000000000000, 0.000000000000000000, 1.000000000000000000 ) ) ;
#10 = ADVANCED_FACE ( 'NONE', ( #971 ), #573, .T. ) ;
#11 = DIRECTION ( 'NONE',  ( 0.000000000000000000, -0.000000000000000000, -1.000000000000000000 ) ) ;
#12 = PLANE ( 'NONE',  #363 ) ;
#13 = DIRECTION ( 'NONE',  ( 0.000000000000000000, 0.000000000000000000, -1.000000000000000000 ) ) ;
#14 = DIRECTION ( 'NONE',  ( 0.000000000000000000, 0.000000000000000000, 1.000000000000000000 ) ) ;
#15 = DIRECTION ( 'NONE',  ( 0.000000000000000000, 0.000000000000000000, -1.000000000000000000 ) ) ;
#16 = EDGE_CURVE ( 'NONE', #342, #326, #977, .T. ) ;
#17 = EDGE_CURVE ( 'NONE', #162, #252, #574, .T. ) ;
#18 = EDGE_CURVE ( 'NONE', #44, #133, #166, .T. ) ;
#19 = CARTESIAN_POINT ( 'NONE',  ( -0.9700000000000003064, -3.649999999999999911, -2.147366596101027536 ) ) ;
#20 = ORIENTED_EDGE ( 'NONE', *, *, #600, .F. ) ;
#21 = ORIENTED_EDGE ( 'NONE', *, *, #1205, .T. ) ;
#22 = ADVANCED_FACE ( 'NONE', ( #975 ), #497, .T. ) ;
#23 = AXIS2_PLACEMENT_3D ( 'NONE', #471, #411, #127 ) ;
#24 = ORIENTED_EDGE ( 'NONE', *, *, #828, .T. ) ;
#25 = DIRECTION ( 'NONE',  ( -1.000000000000000000, 0.000000000000000000, 0.000000000000000000 ) ) ;
#26 = PLANE ( 'NONE',  #835 ) ;
#27 = ORIENTED_EDGE ( 'NONE', *, *, #132, .F. ) ;
#28 = CARTESIAN_POINT ( 'NONE',  ( 0.9700000000000003064, -5.450000000000000178, -2.147366596101027536 ) ) ;
#29 = ORIENTED_EDGE ( 'NONE', *, *, #1169, .F. ) ;
#30 = DIRECTION ( 'NONE',  ( 0.000000000000000000, 0.000000000000000000, 1.000000000000000000 ) ) ;
#31 = APPLICATION_CONTEXT ( 'automotive_design' ) ;
#32 = EDGE_LOOP ( 'NONE', ( #56, #946, #24, #730 ) ) ;
#33 = ORIENTED_EDGE ( 'NONE', *, *, #1151, .F. ) ;
#34 = EDGE_CURVE ( 'NONE', #747, #129, #867, .T. ) ;
#35 = DIRECTION ( 'NONE',  ( 1.000000000000000000, 0.000000000000000000, 0.000000000000000000 ) ) ;
#36 = AXIS2_PLACEMENT_3D ( 'NONE', #345, #959, #398 ) ;
#37 = DIRECTION ( 'NONE',  ( 0.000000000000000000, 0.000000000000000000, -1.000000000000000000 ) ) ;
#38 = VERTEX_POINT ( 'NONE', #960 ) ;
#39 = ORIENTED_EDGE ( 'NONE', *, *, #846, .T. ) ;
#40 = DIRECTION ( 'NONE',  ( -0.000000000000000000, 1.000000000000000000, 0.000000000000000000 ) ) ;
#41 = DIRECTION ( 'NONE',  ( 0.000000000000000000, 0.000000000000000000, 1.000000000000000000 ) ) ;
#42 = EDGE_LOOP ( 'NONE', ( #577, #1050, #163, #974 ) ) ;
#43 = MECHANICAL_DESIGN_GEOMETRIC_PRESENTATION_REPRESENTATION (  '', ( #699 ), #394 ) ;
#44 = VERTEX_POINT ( 'NONE', #790 ) ;
#45 = EDGE_LOOP ( 'NONE', ( #924, #138, #914, #564 ) ) ;
#46 = VECTOR ( 'NONE', #628, 1000.000000000000000 ) ;
#47 = DIRECTION ( 'NONE',  ( 1.000000000000000000, 0.000000000000000000, 0.000000000000000000 ) ) ;
#48 = VERTEX_POINT ( 'NONE', #611 ) ;
#49 = LINE ( 'NONE', #784, #899 ) ;
#50 = EDGE_CURVE ( 'NONE', #722, #939, #80, .T. ) ;
#51 = VERTEX_POINT ( 'NONE', #795 ) ;
#52 = PRESENTATION_STYLE_ASSIGNMENT (( #407 ) ) ;
#53 = ORIENTED_EDGE ( 'NONE', *, *, #911, .T. ) ;
#54 = DIRECTION ( 'NONE',  ( -1.000000000000000000, 1.224646799147353207E-16, 0.000000000000000000 ) ) ;
#55 = CARTESIAN_POINT ( 'NONE',  ( 1.019999999999996687, -3.649999999999999911, 0.2500000000000000000 ) ) ;
#56 = ORIENTED_EDGE ( 'NONE', *, *, #908, .F. ) ;
#57 = LINE ( 'NONE', #618, #892 ) ;
#58 = ORIENTED_EDGE ( 'NONE', *, *, #1151, .T. ) ;
#59 = LINE ( 'NONE', #786, #100 ) ;
#60 = CARTESIAN_POINT ( 'NONE',  ( 1.570000000000000284, -5.450000000000000178, -2.147366596101027536 ) ) ;
#61 = DIRECTION ( 'NONE',  ( 0.000000000000000000, 0.000000000000000000, 1.000000000000000000 ) ) ;
#62 = ORIENTED_EDGE ( 'NONE', *, *, #478, .F. ) ;
#63 = PRODUCT_DEFINITION_FORMATION_WITH_SPECIFIED_SOURCE ( 'ANY', '', #966, .NOT_KNOWN. ) ;
#64 = LINE ( 'NONE', #874, #481 ) ;
#65 = VERTEX_POINT ( 'NONE', #408 ) ;
#66 = CARTESIAN_POINT ( 'NONE',  ( 0.000000000000000000, 0.000000000000000000, 0.000000000000000000 ) ) ;
#67 = DIRECTION ( 'NONE',  ( -1.000000000000000000, 0.000000000000000000, 0.000000000000000000 ) ) ;
#68 = LINE ( 'NONE', #389, #902 ) ;
#69 = EDGE_LOOP ( 'NONE', ( #716, #918, #522, #869 ) ) ;
#70 = FACE_OUTER_BOUND ( 'NONE', #42, .T. ) ;
#71 = ORIENTED_EDGE ( 'NONE', *, *, #455, .F. ) ;
#72 = LINE ( 'NONE', #638, #102 ) ;
#73 = CARTESIAN_POINT ( 'NONE',  ( 0.000000000000000000, 5.674999999999999822, 0.000000000000000000 ) ) ;
#74 = VERTEX_POINT ( 'NONE', #980 ) ;
#75 = VECTOR ( 'NONE', #225, 1000.000000000000000 ) ;
#76 = ORIENTED_EDGE ( 'NONE', *, *, #210, .F. ) ;
#77 = PLANE ( 'NONE',  #426 ) ;
#78 = VECTOR ( 'NONE', #1003, 1000.000000000000000 ) ;
#79 = ORIENTED_EDGE ( 'NONE', *, *, #732, .F. ) ;
#80 = LINE ( 'NONE', #259, #78 ) ;
#81 = DIRECTION ( 'NONE',  ( 1.196361017915039486E-16, -1.000000000000000000, 0.000000000000000000 ) ) ;
#82 = ORIENTED_EDGE ( 'NONE', *, *, #285, .F. ) ;
#83 = DIRECTION ( 'NONE',  ( 0.000000000000000000, -0.000000000000000000, 1.000000000000000000 ) ) ;
#84 = ORIENTED_EDGE ( 'NONE', *, *, #454, .T. ) ;
#85 = LINE ( 'NONE', #118, #75 ) ;
#86 = ORIENTED_EDGE ( 'NONE', *, *, #229, .F. ) ;
#87 = CARTESIAN_POINT ( 'NONE',  ( -1.019999999999996687, -3.649999999999999911, 0.2500000000000000000 ) ) ;
#88 = VECTOR ( 'NONE', #67, 1000.000000000000000 ) ;
#89 = EDGE_CURVE ( 'NONE', #428, #953, #895, .T. ) ;
#90 = VERTEX_POINT ( 'NONE', #708 ) ;
#91 = CIRCLE ( 'NONE', #410, 2.750000000000001776 ) ;
#92 = EDGE_CURVE ( 'NONE', #749, #437, #49, .T. ) ;
#93 = EDGE_LOOP ( 'NONE', ( #882, #949, #76, #992 ) ) ;
#94 = DIRECTION ( 'NONE',  ( 0.000000000000000000, -1.000000000000000000, -0.000000000000000000 ) ) ;
#95 = ORIENTED_EDGE ( 'NONE', *, *, #651, .F. ) ;
#96 = EDGE_LOOP ( 'NONE', ( #106, #863, #434, #119, #552, #965, #736, #174, #21, #698, #834, #963 ) ) ;
#97 = DIRECTION ( 'NONE',  ( 0.000000000000000000, 0.000000000000000000, -1.000000000000000000 ) ) ;
#98 = VECTOR ( 'NONE', #9, 1000.000000000000000 ) ;
#99 = ORIENTED_EDGE ( 'NONE', *, *, #1022, .T. ) ;
#100 = VECTOR ( 'NONE', #14, 1000.000000000000000 ) ;
#101 = ORIENTED_EDGE ( 'NONE', *, *, #403, .F. ) ;
#102 = VECTOR ( 'NONE', #161, 1000.000000000000000 ) ;
#103 = DIRECTION ( 'NONE',  ( 0.000000000000000000, 0.000000000000000000, -1.000000000000000000 ) ) ;
#104 = CARTESIAN_POINT ( 'NONE',  ( 2.969768487932330991E-16, 1.449999999999999067, 2.424999999999999822 ) ) ;
#105 = VERTEX_POINT ( 'NONE', #514 ) ;
#106 = ORIENTED_EDGE ( 'NONE', *, *, #845, .T. ) ;
#107 = EDGE_LOOP ( 'NONE', ( #82, #101, #1093, #709 ) ) ;
#108 = EDGE_CURVE ( 'NONE', #530, #74, #57, .T. ) ;
#109 = DIRECTION ( 'NONE',  ( -1.000000000000000000, 1.196361017915039732E-16, 0.000000000000000000 ) ) ;
#110 = ORIENTED_EDGE ( 'NONE', *, *, #347, .T. ) ;
#111 = STYLED_ITEM ( 'NONE', ( #622 ), #767 ) ;
#112 = ORIENTED_EDGE ( 'NONE', *, *, #780, .F. ) ;
#113 = CARTESIAN_POINT ( 'NONE',  ( 0.000000000000000000, 0.000000000000000000, -2.750000000000000000 ) ) ;
#114 = DIRECTION ( 'NONE',  ( -1.196361017915039486E-16, 1.000000000000000000, -0.000000000000000000 ) ) ;
#115 = ORIENTED_EDGE ( 'NONE', *, *, #804, .T. ) ;
#116 = ORIENTED_EDGE ( 'NONE', *, *, #632, .F. ) ;
#117 = FILL_AREA_STYLE ('',( #685 ) ) ;
#118 = CARTESIAN_POINT ( 'NONE',  ( 1.020000000000000018, 3.061616997868383018E-17, 0.2500000000000000000 ) ) ;
#119 = ORIENTED_EDGE ( 'NONE', *, *, #50, .T. ) ;
#120 = ORIENTED_EDGE ( 'NONE', *, *, #651, .T. ) ;
#121 = ORIENTED_EDGE ( 'NONE', *, *, #1192, .T. ) ;
#122 = DIRECTION ( 'NONE',  ( 0.000000000000000000, -0.000000000000000000, -1.000000000000000000 ) ) ;
#123 = ORIENTED_EDGE ( 'NONE', *, *, #356, .F. ) ;
#124 = AXIS2_PLACEMENT_3D ( 'NONE', #672, #817, #639 ) ;
#125 = CLOSED_SHELL ( 'NONE', ( #177, #898, #251, #22, #427, #757, #226, #385, #10, #788 ) ) ;
#126 = ORIENTED_EDGE ( 'NONE', *, *, #944, .F. ) ;
#127 = DIRECTION ( 'NONE',  ( 0.000000000000000000, 0.000000000000000000, -1.000000000000000000 ) ) ;
#128 = CARTESIAN_POINT ( 'NONE',  ( -1.570000000000000284, -5.450000000000000178, 0.2500000000000000000 ) ) ;
#129 = VERTEX_POINT ( 'NONE', #733 ) ;
#130 = ORIENTED_EDGE ( 'NONE', *, *, #285, .T. ) ;
#131 = VERTEX_POINT ( 'NONE', #862 ) ;
#132 = EDGE_CURVE ( 'NONE', #485, #502, #879, .T. ) ;
#133 = VERTEX_POINT ( 'NONE', #842 ) ;
#134 = ORIENTED_EDGE ( 'NONE', *, *, #386, .T. ) ;
#135 = ORIENTED_EDGE ( 'NONE', *, *, #770, .F. ) ;
#136 = VERTEX_POINT ( 'NONE', #1090 ) ;
#137 =( LENGTH_UNIT ( ) NAMED_UNIT ( * ) SI_UNIT ( .MILLI., .METRE. ) );
#138 = ORIENTED_EDGE ( 'NONE', *, *, #209, .T. ) ;
#139 = DIRECTION ( 'NONE',  ( 0.000000000000000000, -0.000000000000000000, 1.000000000000000000 ) ) ;
#140 = DIRECTION ( 'NONE',  ( 0.000000000000000000, 0.000000000000000000, 1.000000000000000000 ) ) ;
#141 = ADVANCED_FACE ( 'NONE', ( #459 ), #26, .T. ) ;
#142 = ORIENTED_EDGE ( 'NONE', *, *, #535, .T. ) ;
#143 = EDGE_LOOP ( 'NONE', ( #897, #294, #961, #482 ) ) ;
#144 = ORIENTED_EDGE ( 'NONE', *, *, #209, .F. ) ;
#145 = ORIENTED_EDGE ( 'NONE', *, *, #983, .F. ) ;
#146 = ORIENTED_EDGE ( 'NONE', *, *, #300, .T. ) ;
#147 = CARTESIAN_POINT ( 'NONE',  ( -1.020000000000000018, 3.061616997868383018E-17, -0.2500000000000000000 ) ) ;
#148 = ORIENTED_EDGE ( 'NONE', *, *, #614, .F. ) ;
#149 = EDGE_CURVE ( 'NONE', #437, #909, #64, .T. ) ;
#150 = EDGE_CURVE ( 'NONE', #133, #38, #59, .T. ) ;
#151 = CARTESIAN_POINT ( 'NONE',  ( -1.570000000000000284, -3.649999999999999911, -2.147366596101027536 ) ) ;
#152 = ORIENTED_EDGE ( 'NONE', *, *, #406, .F. ) ;
#153 = VERTEX_POINT ( 'NONE', #104 ) ;
#154 = ORIENTED_EDGE ( 'NONE', *, *, #727, .F. ) ;
#155 = ORIENTED_EDGE ( 'NONE', *, *, #597, .F. ) ;
#156 = ORIENTED_EDGE ( 'NONE', *, *, #553, .T. ) ;
#157 = CARTESIAN_POINT ( 'NONE',  ( -1.520000000000000018, -3.061616997868383018E-17, 0.2500000000000000000 ) ) ;
#158 = AXIS2_PLACEMENT_3D ( 'NONE', #1181, #245, #396 ) ;
#159 = ORIENTED_EDGE ( 'NONE', *, *, #1200, .F. ) ;
#160 = DIRECTION ( 'NONE',  ( 1.000000000000000000, 1.224646799147353207E-16, 0.000000000000000000 ) ) ;
#161 = DIRECTION ( 'NONE',  ( 1.000000000000000000, -1.224646799147353207E-16, -0.000000000000000000 ) ) ;
#162 = VERTEX_POINT ( 'NONE', #217 ) ;
#163 = ORIENTED_EDGE ( 'NONE', *, *, #108, .F. ) ;
#164 = VECTOR ( 'NONE', #1168, 1000.000000000000000 ) ;
#165 = CARTESIAN_POINT ( 'NONE',  ( 1.570000000000000284, -3.649999999999999911, 0.2500000000000000000 ) ) ;
#166 = LINE ( 'NONE', #718, #565 ) ;
#167 = EDGE_CURVE ( 'NONE', #179, #663, #68, .T. ) ;
#168 = AXIS2_PLACEMENT_3D ( 'NONE', #823, #94, #830 ) ;
#169 = CARTESIAN_POINT ( 'NONE',  ( -1.019999999999999352, -5.449999999999998401, 0.2500000000000000000 ) ) ;
#170 = PRODUCT_DEFINITION_SHAPE ( 'NONE', 'NONE',  #511 ) ;
#171 = CARTESIAN_POINT ( 'NONE',  ( 1.570000000000000284, -5.450000000000000178, 0.2500000000000000000 ) ) ;
#172 = ORIENTED_EDGE ( 'NONE', *, *, #423, .F. ) ;
#173 = DIRECTION ( 'NONE',  ( -0.000000000000000000, -1.000000000000000000, -0.000000000000000000 ) ) ;
#174 = ORIENTED_EDGE ( 'NONE', *, *, #367, .T. ) ;
#175 = LINE ( 'NONE', #1051, #598 ) ;
#176 = CARTESIAN_POINT ( 'NONE',  ( 1.519999999999999352, -5.449999999999998401, -0.2500000000000000000 ) ) ;
#177 = ADVANCED_FACE ( 'NONE', ( #450 ), #503, .T. ) ;
#178 = ORIENTED_EDGE ( 'NONE', *, *, #535, .F. ) ;
#179 = VERTEX_POINT ( 'NONE', #601 ) ;
#180 = EDGE_CURVE ( 'NONE', #561, #847, #91, .T. ) ;
#181 = VERTEX_POINT ( 'NONE', #1163 ) ;
#182 = VECTOR ( 'NONE', #122, 1000.000000000000000 ) ;
#183 = STYLED_ITEM ( 'NONE', ( #257 ), #794 ) ;
#184 = VECTOR ( 'NONE', #47, 1000.000000000000000 ) ;
#185 = DIRECTION ( 'NONE',  ( -0.000000000000000000, -1.000000000000000000, -0.000000000000000000 ) ) ;
#186 = CARTESIAN_POINT ( 'NONE',  ( 0.000000000000000000, 0.000000000000000000, 0.000000000000000000 ) ) ;
#187 = VECTOR ( 'NONE', #796, 1000.000000000000000 ) ;
#188 = CARTESIAN_POINT ( 'NONE',  ( 0.000000000000000000, 0.000000000000000000, -2.425000000000000266 ) ) ;
#189 = VECTOR ( 'NONE', #517, 1000.000000000000000 ) ;
#190 = DIRECTION ( 'NONE',  ( 0.000000000000000000, 0.000000000000000000, -1.000000000000000000 ) ) ;
#191 = VECTOR ( 'NONE', #114, 1000.000000000000000 ) ;
#192 = FACE_OUTER_BOUND ( 'NONE', #432, .T. ) ;
#193 = DIRECTION ( 'NONE',  ( 0.000000000000000000, 0.000000000000000000, 1.000000000000000000 ) ) ;
#194 = LINE ( 'NONE', #854, #605 ) ;
#195 =( LENGTH_UNIT ( ) NAMED_UNIT ( * ) SI_UNIT ( .MILLI., .METRE. ) );
#196 = VECTOR ( 'NONE', #395, 1000.000000000000000 ) ;
#197 = EDGE_CURVE ( 'NONE', #162, #722, #890, .T. ) ;
#198 = CARTESIAN_POINT ( 'NONE',  ( 1.020000000000000018, 3.061616997868383018E-17, 0.2500000000000000000 ) ) ;
#199 = VECTOR ( 'NONE', #562, 1000.000000000000000 ) ;
#200 = LINE ( 'NONE', #490, #571 ) ;
#201 = DIRECTION ( 'NONE',  ( 0.000000000000000000, 0.000000000000000000, -1.000000000000000000 ) ) ;
#202 = VECTOR ( 'NONE', #646, 1000.000000000000000 ) ;
#203 = CIRCLE ( 'NONE', #868, 2.749999999999998668 ) ;
#204 = AXIS2_PLACEMENT_3D ( 'NONE', #247, #397, #414 ) ;
#205 = CARTESIAN_POINT ( 'NONE',  ( -0.9700000000000003064, -3.649999999999999911, 0.2500000000000000000 ) ) ;
#206 = VECTOR ( 'NONE', #1069, 1000.000000000000000 ) ;
#207 = FACE_OUTER_BOUND ( 'NONE', #1064, .T. ) ;
#208 = CARTESIAN_POINT ( 'NONE',  ( 0.000000000000000000, 1.449999999999999067, 0.000000000000000000 ) ) ;
#209 = EDGE_CURVE ( 'NONE', #302, #38, #85, .T. ) ;
#210 = EDGE_CURVE ( 'NONE', #1148, #338, #858, .T. ) ;
#211 = LINE ( 'NONE', #418, #235 ) ;
#212 = EDGE_CURVE ( 'NONE', #44, #265, #856, .T. ) ;
#213 = LINE ( 'NONE', #637, #227 ) ;
#214 = LINE ( 'NONE', #972, #630 ) ;
#215 = ADVANCED_FACE ( 'NONE', ( #70 ), #1028, .T. ) ;
#216 = CARTESIAN_POINT ( 'NONE',  ( -1.519999999999999574, -3.649999999999999911, 0.2500000000000000000 ) ) ;
#217 = CARTESIAN_POINT ( 'NONE',  ( -0.9700000000000003064, -3.649999999999999911, -0.2500000000000000000 ) ) ;
#218 = DIRECTION ( 'NONE',  ( 0.000000000000000000, 1.000000000000000000, 0.000000000000000000 ) ) ;
#219 = AXIS2_PLACEMENT_3D ( 'NONE', #1088, #344, #253 ) ;
#220 = VECTOR ( 'NONE', #1019, 1000.000000000000000 ) ;
#221 = CARTESIAN_POINT ( 'NONE',  ( -1.020000000000000018, 3.061616997868383018E-17, -0.2500000000000000000 ) ) ;
#222 = DIRECTION ( 'NONE',  ( -0.000000000000000000, -1.000000000000000000, -0.000000000000000000 ) ) ;
#223 = DIRECTION ( 'NONE',  ( -1.000000000000000000, 1.196361017915039732E-16, 0.000000000000000000 ) ) ;
#224 = FACE_OUTER_BOUND ( 'NONE', #916, .T. ) ;
#225 = DIRECTION ( 'NONE',  ( 1.196361017915039486E-16, 1.000000000000000000, 0.000000000000000000 ) ) ;
#226 = ADVANCED_FACE ( 'NONE', ( #904 ), #290, .T. ) ;
#227 = VECTOR ( 'NONE', #873, 1000.000000000000000 ) ;
#228 = DIRECTION ( 'NONE',  ( 0.000000000000000000, 0.000000000000000000, 1.000000000000000000 ) ) ;
#229 = EDGE_CURVE ( 'NONE', #181, #302, #872, .T. ) ;
#230 = AXIS2_PLACEMENT_3D ( 'NONE', #539, #549, #83 ) ;
#231 = CARTESIAN_POINT ( 'NONE',  ( 1.019999999999999574, -3.649999999999999911, 0.2500000000000000000 ) ) ;
#232 = APPLICATION_PROTOCOL_DEFINITION ( 'draft international standard', 'automotive_design', 1998, #496 ) ;
#233 = VECTOR ( 'NONE', #256, 1000.000000000000000 ) ;
#234 = DIRECTION ( 'NONE',  ( 1.000000000000000000, 0.000000000000000000, 0.000000000000000000 ) ) ;
#235 = VECTOR ( 'NONE', #798, 1000.000000000000000 ) ;
#236 = LINE ( 'NONE', #591, #615 ) ;
#237 = LINE ( 'NONE', #289, #240 ) ;
#238 = ORIENTED_EDGE ( 'NONE', *, *, #367, .F. ) ;
#239 = DIRECTION ( 'NONE',  ( 0.000000000000000000, 0.000000000000000000, -1.000000000000000000 ) ) ;
#240 = VECTOR ( 'NONE', #542, 1000.000000000000000 ) ;
#241 = LINE ( 'NONE', #1184, #641 ) ;
#242 = CARTESIAN_POINT ( 'NONE',  ( 1.520000000000000018, -3.061616997868383018E-17, 0.2500000000000000000 ) ) ;
#243 = VECTOR ( 'NONE', #884, 1000.000000000000000 ) ;
#244 = LINE ( 'NONE', #242, #206 ) ;
#245 = DIRECTION ( 'NONE',  ( -0.000000000000000000, -1.000000000000000000, -0.000000000000000000 ) ) ;
#246 = LINE ( 'NONE', #1145, #649 ) ;
#247 = CARTESIAN_POINT ( 'NONE',  ( 0.000000000000000000, 0.000000000000000000, 0.2500000000000000000 ) ) ;
#248 = AXIS2_PLACEMENT_3D ( 'NONE', #421, #789, #861 ) ;
#249 = VECTOR ( 'NONE', #25, 1000.000000000000000 ) ;
#250 = FACE_OUTER_BOUND ( 'NONE', #880, .T. ) ;
#251 = ADVANCED_FACE ( 'NONE', ( #463 ), #910, .T. ) ;
#252 = VERTEX_POINT ( 'NONE', #372 ) ;
#253 = DIRECTION ( 'NONE',  ( -1.196361017915039732E-16, 1.000000000000000000, 0.000000000000000000 ) ) ;
#254 = LINE ( 'NONE', #993, #220 ) ;
#255 = CYLINDRICAL_SURFACE ( 'NONE', #23, 2.425000000000000266 ) ;
#256 = DIRECTION ( 'NONE',  ( 1.196361017915039486E-16, -1.000000000000000000, 0.000000000000000000 ) ) ;
#257 = PRESENTATION_STYLE_ASSIGNMENT (( #1180 ) ) ;
#258 = LINE ( 'NONE', #221, #1085 ) ;
#259 = CARTESIAN_POINT ( 'NONE',  ( -1.570000000000000284, -3.649999999999999911, 0.2500000000000000000 ) ) ;
#260 = FACE_OUTER_BOUND ( 'NONE', #866, .T. ) ;
#261 = VECTOR ( 'NONE', #989, 1000.000000000000000 ) ;
#262 = DIRECTION ( 'NONE',  ( -0.000000000000000000, -0.000000000000000000, -1.000000000000000000 ) ) ;
#263 = VECTOR ( 'NONE', #766, 1000.000000000000000 ) ;
#264 = LINE ( 'NONE', #793, #653 ) ;
#265 = VERTEX_POINT ( 'NONE', #543 ) ;
#266 = CARTESIAN_POINT ( 'NONE',  ( -2.424999999999999822, 8.099999999999999645, -1.296871234934297012 ) ) ;
#267 = VECTOR ( 'NONE', #228, 1000.000000000000000 ) ;
#268 = LINE ( 'NONE', #157, #656 ) ;
#269 = CARTESIAN_POINT ( 'NONE',  ( -1.520000000000000018, -3.061616997868383018E-17, -0.2500000000000000000 ) ) ;
#270 = VECTOR ( 'NONE', #697, 1000.000000000000000 ) ;
#271 = LINE ( 'NONE', #738, #1094 ) ;
#272 = EDGE_LOOP ( 'NONE', ( #843, #875, #84, #121 ) ) ;
#273 = DIRECTION ( 'NONE',  ( -0.000000000000000000, 0.000000000000000000, -1.000000000000000000 ) ) ;
#274 = CIRCLE ( 'NONE', #792, 2.425000000000000266 ) ;
#275 = SURFACE_STYLE_FILL_AREA ( #373 ) ;
#276 = VERTEX_POINT ( 'NONE', #169 ) ;
#277 = DIRECTION ( 'NONE',  ( 0.000000000000000000, 0.000000000000000000, -1.000000000000000000 ) ) ;
#278 = LINE ( 'NONE', #448, #267 ) ;
#279 = VECTOR ( 'NONE', #623, 1000.000000000000000 ) ;
#280 = DIRECTION ( 'NONE',  ( 0.000000000000000000, -0.000000000000000000, -1.000000000000000000 ) ) ;
#281 = LINE ( 'NONE', #871, #1082 ) ;
#282 = DIRECTION ( 'NONE',  ( -0.000000000000000000, -1.000000000000000000, -0.000000000000000000 ) ) ;
#283 = VECTOR ( 'NONE', #774, 1000.000000000000000 ) ;
#284 = DIRECTION ( 'NONE',  ( -0.000000000000000000, -1.000000000000000000, -0.000000000000000000 ) ) ;
#285 = EDGE_CURVE ( 'NONE', #446, #512, #72, .T. ) ;
#286 = EDGE_CURVE ( 'NONE', #945, #664, #467, .T. ) ;
#287 = LINE ( 'NONE', #725, #1063 ) ;
#288 = EDGE_CURVE ( 'NONE', #664, #90, #487, .T. ) ;
#289 = CARTESIAN_POINT ( 'NONE',  ( -1.020000000000000018, 3.061616997868383018E-17, 0.2500000000000000000 ) ) ;
#290 = PLANE ( 'NONE',  #740 ) ;
#291 = FILL_AREA_STYLE_COLOUR ( '', #1116 ) ;
#292 = CARTESIAN_POINT ( 'NONE',  ( 1.520000000000000018, -3.061616997868383018E-17, -0.2500000000000000000 ) ) ;
#293 = AXIS2_PLACEMENT_3D ( 'NONE', #753, #799, #1191 ) ;
#294 = ORIENTED_EDGE ( 'NONE', *, *, #1080, .T. ) ;
#295 = EDGE_LOOP ( 'NONE', ( #952, #134, #941, #935 ) ) ;
#296 = ORIENTED_EDGE ( 'NONE', *, *, #92, .F. ) ;
#297 = VECTOR ( 'NONE', #2, 1000.000000000000000 ) ;
#298 = EDGE_LOOP ( 'NONE', ( #827, #53, #1099, #933 ) ) ;
#299 = DIRECTION ( 'NONE',  ( -1.000000000000000000, 0.000000000000000000, 0.000000000000000000 ) ) ;
#300 = EDGE_CURVE ( 'NONE', #939, #252, #470, .T. ) ;
#301 = AXIS2_PLACEMENT_3D ( 'NONE', #976, #859, #6 ) ;
#302 = VERTEX_POINT ( 'NONE', #896 ) ;
#303 = ORIENTED_EDGE ( 'NONE', *, *, #149, .F. ) ;
#304 = DIRECTION ( 'NONE',  ( 0.000000000000000000, 0.000000000000000000, 1.000000000000000000 ) ) ;
#305 = ORIENTED_EDGE ( 'NONE', *, *, #907, .T. ) ;
#306 = EDGE_LOOP ( 'NONE', ( #1120, #440, #1138, #329 ) ) ;
#307 = CARTESIAN_POINT ( 'NONE',  ( 1.570000000000000284, -5.450000000000000178, -0.2500000000000000000 ) ) ;
#308 = FACE_OUTER_BOUND ( 'NONE', #45, .T. ) ;
#309 = ORIENTED_EDGE ( 'NONE', *, *, #229, .T. ) ;
#310 = CARTESIAN_POINT ( 'NONE',  ( 0.000000000000000000, 1.449999999999999067, -2.424999999999999822 ) ) ;
#311 = FACE_OUTER_BOUND ( 'NONE', #903, .T. ) ;
#312 = UNCERTAINTY_MEASURE_WITH_UNIT (LENGTH_MEASURE( 1.000000000000000082E-05 ), #137, 'distance_accuracy_value', 'NONE');
#313 = ORIENTED_EDGE ( 'NONE', *, *, #818, .T. ) ;
#314 = VECTOR ( 'NONE', #1198, 1000.000000000000000 ) ;
#315 = ORIENTED_EDGE ( 'NONE', *, *, #1185, .T. ) ;
#316 = EDGE_CURVE ( 'NONE', #105, #1077, #876, .T. ) ;
#317 = LINE ( 'NONE', #841, #297 ) ;
#318 = ORIENTED_EDGE ( 'NONE', *, *, #632, .T. ) ;
#319 = DIRECTION ( 'NONE',  ( -0.000000000000000000, -1.000000000000000000, -0.000000000000000000 ) ) ;
#320 = CIRCLE ( 'NONE', #1201, 2.425000000000000266 ) ;
#321 = VERTEX_POINT ( 'NONE', #885 ) ;
#322 = DIRECTION ( 'NONE',  ( 0.000000000000000000, 0.000000000000000000, -1.000000000000000000 ) ) ;
#323 = VECTOR ( 'NONE', #969, 1000.000000000000000 ) ;
#324 = ORIENTED_EDGE ( 'NONE', *, *, #1185, .F. ) ;
#325 = LINE ( 'NONE', #128, #1076 ) ;
#326 = VERTEX_POINT ( 'NONE', #1011 ) ;
#327 = AXIS2_PLACEMENT_3D ( 'NONE', #764, #456, #576 ) ;
#328 = LINE ( 'NONE', #188, #323 ) ;
#329 = ORIENTED_EDGE ( 'NONE', *, *, #386, .F. ) ;
#330 = CARTESIAN_POINT ( 'NONE',  ( -1.020000000000000018, 3.061616997868383018E-17, 0.2500000000000000000 ) ) ;
#331 = DIRECTION ( 'NONE',  ( -0.000000000000000000, -1.000000000000000000, -0.000000000000000000 ) ) ;
#332 = VECTOR ( 'NONE', #768, 1000.000000000000000 ) ;
#333 = ORIENTED_EDGE ( 'NONE', *, *, #454, .F. ) ;
#334 = CARTESIAN_POINT ( 'NONE',  ( -1.020000000000000018, 3.061616997868383018E-17, 0.2500000000000000000 ) ) ;
#335 = VERTEX_POINT ( 'NONE', #55 ) ;
#336 = CARTESIAN_POINT ( 'NONE',  ( 0.000000000000000000, 0.000000000000000000, 0.000000000000000000 ) ) ;
#337 = CARTESIAN_POINT ( 'NONE',  ( -1.570000000000000284, -5.450000000000000178, -2.147366596101027536 ) ) ;
#338 = VERTEX_POINT ( 'NONE', #176 ) ;
#339 = CLOSED_SHELL ( 'NONE', ( #612, #589, #1052, #1091, #851, #402, #829, #1135, #721, #962, #808, #492, #1160, #393 ) ) ;
#340 = DIRECTION ( 'NONE',  ( 1.196361017915039732E-16, -1.000000000000000000, 0.000000000000000000 ) ) ;
#341 = ORIENTED_EDGE ( 'NONE', *, *, #803, .T. ) ;
#342 = VERTEX_POINT ( 'NONE', #647 ) ;
#343 = MANIFOLD_SOLID_BREP ( 'Boss-Extrude2', #826 ) ;
#344 = DIRECTION ( 'NONE',  ( 1.000000000000000000, 1.196361017915039732E-16, -0.000000000000000000 ) ) ;
#345 = CARTESIAN_POINT ( 'NONE',  ( 0.000000000000000000, 1.449999999999999067, 0.000000000000000000 ) ) ;
#346 = DIRECTION ( 'NONE',  ( 1.000000000000000000, 0.000000000000000000, -1.224646799147352961E-16 ) ) ;
#347 = EDGE_CURVE ( 'NONE', #252, #664, #650, .T. ) ;
#348 = CARTESIAN_POINT ( 'NONE',  ( 0.000000000000000000, 0.000000000000000000, -0.2500000000000000000 ) ) ;
#349 = EDGE_CURVE ( 'NONE', #65, #446, #281, .T. ) ;
#350 = DIRECTION ( 'NONE',  ( 0.000000000000000000, -1.000000000000000000, 0.000000000000000000 ) ) ;
#351 = ADVANCED_FACE ( 'NONE', ( #1057 ), #715, .F. ) ;
#352 = PLANE ( 'NONE',  #616 ) ;
#353 = CARTESIAN_POINT ( 'NONE',  ( 0.000000000000000000, 0.000000000000000000, 0.000000000000000000 ) ) ;
#354 = DIRECTION ( 'NONE',  ( 0.000000000000000000, 0.000000000000000000, -1.000000000000000000 ) ) ;
#355 = DIRECTION ( 'NONE',  ( 1.196361017915039486E-16, 1.000000000000000000, 0.000000000000000000 ) ) ;
#356 = EDGE_CURVE ( 'NONE', #442, #642, #287, .T. ) ;
#357 = DIRECTION ( 'NONE',  ( -1.000000000000000000, 0.000000000000000000, -0.000000000000000000 ) ) ;
#358 = PRESENTATION_LAYER_ASSIGNMENT (  '', '', ( #111 ) ) ;
#359 = AXIS2_PLACEMENT_3D ( 'NONE', #369, #667, #929 ) ;
#360 = DIRECTION ( 'NONE',  ( -1.000000000000000000, -0.000000000000000000, -0.000000000000000000 ) ) ;
#361 = DIRECTION ( 'NONE',  ( 1.000000000000000000, 0.000000000000000000, 0.000000000000000000 ) ) ;
#362 = CARTESIAN_POINT ( 'NONE',  ( -1.520000000000000018, -3.061616997868383018E-17, -0.2500000000000000000 ) ) ;
#363 = AXIS2_PLACEMENT_3D ( 'NONE', #337, #392, #304 ) ;
#364 = DIRECTION ( 'NONE',  ( 0.000000000000000000, 0.000000000000000000, -1.000000000000000000 ) ) ;
#365 = PLANE ( 'NONE',  #556 ) ;
#366 = DIRECTION ( 'NONE',  ( 0.000000000000000000, 0.000000000000000000, -1.000000000000000000 ) ) ;
#367 = EDGE_CURVE ( 'NONE', #1055, #839, #1045, .T. ) ;
#368 =( NAMED_UNIT ( * ) PLANE_ANGLE_UNIT ( ) SI_UNIT ( $, .RADIAN. ) );
#369 = CARTESIAN_POINT ( 'NONE',  ( 0.000000000000000000, 0.000000000000000000, 0.2500000000000000000 ) ) ;
#370 = ADVANCED_FACE ( 'NONE', ( #250 ), #596, .F. ) ;
#371 = FILL_AREA_STYLE ('',( #532 ) ) ;
#372 = CARTESIAN_POINT ( 'NONE',  ( -1.019999999999996687, -3.649999999999999911, -0.2500000000000000000 ) ) ;
#373 = FILL_AREA_STYLE ('',( #291 ) ) ;
#374 = DIRECTION ( 'NONE',  ( 0.000000000000000000, -1.000000000000000000, -0.000000000000000000 ) ) ;
#375 = CARTESIAN_POINT ( 'NONE',  ( 0.000000000000000000, 0.000000000000000000, 0.000000000000000000 ) ) ;
#376 = AXIS2_PLACEMENT_3D ( 'NONE', #353, #331, #994 ) ;
#377 = PLANE ( 'NONE',  #327 ) ;
#378 = DIRECTION ( 'NONE',  ( -1.196361017915039486E-16, -1.000000000000000000, 0.000000000000000000 ) ) ;
#379 = DIRECTION ( 'NONE',  ( 0.000000000000000000, 0.000000000000000000, -1.000000000000000000 ) ) ;
#380 = EDGE_CURVE ( 'NONE', #335, #65, #1072, .T. ) ;
#381 = AXIS2_PLACEMENT_3D ( 'NONE', #1195, #61, #234 ) ;
#382 = CARTESIAN_POINT ( 'NONE',  ( 0.000000000000000000, 5.674999999999999822, 0.000000000000000000 ) ) ;
#383 = CARTESIAN_POINT ( 'NONE',  ( -1.520000000000000018, -3.649999999999999911, -0.2500000000000000000 ) ) ;
#384 = DIRECTION ( 'NONE',  ( -1.000000000000000000, -1.196361017915039732E-16, 0.000000000000000000 ) ) ;
#385 = ADVANCED_FACE ( 'NONE', ( #645 ), #255, .T. ) ;
#386 = EDGE_CURVE ( 'NONE', #561, #978, #682, .T. ) ;
#387 = CARTESIAN_POINT ( 'NONE',  ( -1.519999999999999352, -5.450000000000000178, 0.2500000000000000000 ) ) ;
#388 = MECHANICAL_DESIGN_GEOMETRIC_PRESENTATION_REPRESENTATION (  '', ( #183 ), #813 ) ;
#389 = CARTESIAN_POINT ( 'NONE',  ( -2.424999999999999822, 8.099999999999999645, -1.296871234934297012 ) ) ;
#390 = DIRECTION ( 'NONE',  ( 0.000000000000000000, -0.000000000000000000, 1.000000000000000000 ) ) ;
#391 = DIRECTION ( 'NONE',  ( -0.000000000000000000, -1.000000000000000000, -0.000000000000000000 ) ) ;
#392 = DIRECTION ( 'NONE',  ( -1.000000000000000000, 0.000000000000000000, 0.000000000000000000 ) ) ;
#393 = ADVANCED_FACE ( 'NONE', ( #693 ), #1054, .T. ) ;
#394 =( GEOMETRIC_REPRESENTATION_CONTEXT ( 3 ) GLOBAL_UNCERTAINTY_ASSIGNED_CONTEXT ( ( #559 ) ) GLOBAL_UNIT_ASSIGNED_CONTEXT ( ( #810, #1030, #1140 ) ) REPRESENTATION_CONTEXT ( 'NONE', 'WORKASPACE' ) );
#395 = DIRECTION ( 'NONE',  ( -0.000000000000000000, -0.000000000000000000, -1.000000000000000000 ) ) ;
#396 = DIRECTION ( 'NONE',  ( 0.000000000000000000, 0.000000000000000000, -1.000000000000000000 ) ) ;
#397 = DIRECTION ( 'NONE',  ( 0.000000000000000000, 0.000000000000000000, -1.000000000000000000 ) ) ;
#398 = DIRECTION ( 'NONE',  ( 0.000000000000000000, 0.000000000000000000, -1.000000000000000000 ) ) ;
#399 = CARTESIAN_POINT ( 'NONE',  ( 0.000000000000000000, 5.674999999999999822, 0.000000000000000000 ) ) ;
#400 = PLANE ( 'NONE',  #758 ) ;
#401 = CARTESIAN_POINT ( 'NONE',  ( 0.000000000000000000, 5.674999999999999822, 0.000000000000000000 ) ) ;
#402 = ADVANCED_FACE ( 'NONE', ( #690 ), #1177, .F. ) ;
#403 = EDGE_CURVE ( 'NONE', #457, #446, #271, .T. ) ;
#404 = DIRECTION ( 'NONE',  ( -1.000000000000000000, 0.000000000000000000, 0.000000000000000000 ) ) ;
#405 = EDGE_CURVE ( 'NONE', #338, #265, #264, .T. ) ;
#406 = EDGE_CURVE ( 'NONE', #909, #660, #258, .T. ) ;
#407 = SURFACE_STYLE_USAGE ( .BOTH. , #1067 ) ;
#408 = CARTESIAN_POINT ( 'NONE',  ( 1.019999999999996687, -3.649999999999999911, -0.2500000000000000000 ) ) ;
#409 = DIRECTION ( 'NONE',  ( 0.000000000000000000, 0.000000000000000000, 1.000000000000000000 ) ) ;
#410 = AXIS2_PLACEMENT_3D ( 'NONE', #583, #973, #1060 ) ;
#411 = DIRECTION ( 'NONE',  ( -0.000000000000000000, -1.000000000000000000, -0.000000000000000000 ) ) ;
#412 = PLANE ( 'NONE',  #948 ) ;
#413 = DIRECTION ( 'NONE',  ( 0.000000000000000000, -1.000000000000000000, -0.000000000000000000 ) ) ;
#414 = DIRECTION ( 'NONE',  ( 1.000000000000000000, 0.000000000000000000, 0.000000000000000000 ) ) ;
#415 = EDGE_CURVE ( 'NONE', #860, #321, #1087, .T. ) ;
#416 = AXIS2_PLACEMENT_3D ( 'NONE', #812, #529, #1016 ) ;
#417 = CARTESIAN_POINT ( 'NONE',  ( 0.000000000000000000, 1.449999999999999067, -2.750000000000001776 ) ) ;
#418 = CARTESIAN_POINT ( 'NONE',  ( 1.570000000000000284, -5.450000000000000178, -0.2500000000000000000 ) ) ;
#419 =( NAMED_UNIT ( * ) SI_UNIT ( $, .STERADIAN. ) SOLID_ANGLE_UNIT ( ) );
#420 = PLANE ( 'NONE',  #479 ) ;
#421 = CARTESIAN_POINT ( 'NONE',  ( 1.570000000000000284, -3.649999999999999911, -2.147366596101027536 ) ) ;
#422 = CARTESIAN_POINT ( 'NONE',  ( 1.519999999999999352, -5.450000000000000178, 0.2500000000000000000 ) ) ;
#423 = EDGE_CURVE ( 'NONE', #131, #90, #268, .T. ) ;
#424 = ORIENTED_EDGE ( 'NONE', *, *, #495, .T. ) ;
#425 = UNCERTAINTY_MEASURE_WITH_UNIT (LENGTH_MEASURE( 1.000000000000000082E-05 ), #912, 'distance_accuracy_value', 'NONE');
#426 = AXIS2_PLACEMENT_3D ( 'NONE', #585, #109, #833 ) ;
#427 = ADVANCED_FACE ( 'NONE', ( #1053 ), #666, .T. ) ;
#428 = VERTEX_POINT ( 'NONE', #782 ) ;
#429 = EDGE_LOOP ( 'NONE', ( #86, #145, #889, #148, #95, #475, #938, #936, #990, #531, #982, #144 ) ) ;
#430 = PLANE ( 'NONE',  #230 ) ;
#431 = CARTESIAN_POINT ( 'NONE',  ( -1.570000000000000284, -5.450000000000000178, -2.147366596101027536 ) ) ;
#432 = EDGE_LOOP ( 'NONE', ( #958, #303, #296, #1108 ) ) ;
#433 = DIRECTION ( 'NONE',  ( -0.000000000000000000, -1.000000000000000000, -0.000000000000000000 ) ) ;
#434 = ORIENTED_EDGE ( 'NONE', *, *, #597, .T. ) ;
#435 = PRESENTATION_LAYER_ASSIGNMENT (  '', '', ( #699 ) ) ;
#436 = CARTESIAN_POINT ( 'NONE',  ( -1.570000000000000284, -5.450000000000000178, -0.2500000000000000000 ) ) ;
#437 = VERTEX_POINT ( 'NONE', #837 ) ;
#438 = VERTEX_POINT ( 'NONE', #881 ) ;
#439 = DIRECTION ( 'NONE',  ( -0.000000000000000000, -1.000000000000000000, -0.000000000000000000 ) ) ;
#440 = ORIENTED_EDGE ( 'NONE', *, *, #1169, .T. ) ;
#441 = PLANE ( 'NONE',  #1147 ) ;
#442 = VERTEX_POINT ( 'NONE', #748 ) ;
#443 = PRODUCT_DEFINITION_CONTEXT ( 'detailed design', #31, 'design' ) ;
#444 = ORIENTED_EDGE ( 'NONE', *, *, #423, .T. ) ;
#445 = CARTESIAN_POINT ( 'NONE',  ( -0.9700000000000003064, -5.450000000000000178, -2.147366596101027536 ) ) ;
#446 = VERTEX_POINT ( 'NONE', #1026 ) ;
#447 = VECTOR ( 'NONE', #831, 1000.000000000000000 ) ;
#448 = CARTESIAN_POINT ( 'NONE',  ( -1.019999999999999352, -5.450000000000000178, 0.2500000000000000000 ) ) ;
#449 = AXIS2_PLACEMENT_3D ( 'NONE', #208, #1154, #820 ) ;
#450 = FACE_OUTER_BOUND ( 'NONE', #480, .T. ) ;
#451 = VERTEX_POINT ( 'NONE', #1009 ) ;
#452 = EDGE_CURVE ( 'NONE', #265, #181, #670, .T. ) ;
#453 = ORIENTED_EDGE ( 'NONE', *, *, #771, .F. ) ;
#454 = EDGE_CURVE ( 'NONE', #502, #521, #1068, .T. ) ;
#455 = EDGE_CURVE ( 'NONE', #451, #48, #1078, .T. ) ;
#456 = DIRECTION ( 'NONE',  ( 0.000000000000000000, 1.000000000000000000, 0.000000000000000000 ) ) ;
#457 = VERTEX_POINT ( 'NONE', #198 ) ;
#458 = ORIENTED_EDGE ( 'NONE', *, *, #968, .T. ) ;
#459 = FACE_OUTER_BOUND ( 'NONE', #705, .T. ) ;
#460 = EDGE_LOOP ( 'NONE', ( #1142, #920, #518, #1133, #324, #891, #507, #925, #178, #515, #152, #824 ) ) ;
#461 = MECHANICAL_DESIGN_GEOMETRIC_PRESENTATION_REPRESENTATION (  '', ( #775 ), #1161 ) ;
#462 = CARTESIAN_POINT ( 'NONE',  ( -2.424999999999999822, 0.000000000000000000, -1.296871234934297012 ) ) ;
#463 = FACE_OUTER_BOUND ( 'NONE', #306, .T. ) ;
#464 = DIRECTION ( 'NONE',  ( 1.000000000000000000, 0.000000000000000000, 0.000000000000000000 ) ) ;
#465 = ORIENTED_EDGE ( 'NONE', *, *, #316, .T. ) ;
#466 = ADVANCED_FACE ( 'NONE', ( #683 ), #635, .F. ) ;
#467 = LINE ( 'NONE', #1196, #483 ) ;
#468 = CARTESIAN_POINT ( 'NONE',  ( 1.570000000000000284, -3.649999999999999911, -0.2500000000000000000 ) ) ;
#469 = ORIENTED_EDGE ( 'NONE', *, *, #732, .T. ) ;
#470 = LINE ( 'NONE', #1124, #46 ) ;
#471 = CARTESIAN_POINT ( 'NONE',  ( 0.000000000000000000, 0.000000000000000000, 0.000000000000000000 ) ) ;
#472 = VERTEX_POINT ( 'NONE', #1035 ) ;
#473 = PLANE ( 'NONE',  #124 ) ;
#474 = VECTOR ( 'NONE', #806, 1000.000000000000000 ) ;
#475 = ORIENTED_EDGE ( 'NONE', *, *, #1193, .F. ) ;
#476 = PLANE ( 'NONE',  #168 ) ;
#477 = DIRECTION ( 'NONE',  ( 0.000000000000000000, -0.000000000000000000, 1.000000000000000000 ) ) ;
#478 = EDGE_CURVE ( 'NONE', #136, #953, #711, .T. ) ;
#479 = AXIS2_PLACEMENT_3D ( 'NONE', #60, #374, #273 ) ;
#480 = EDGE_LOOP ( 'NONE', ( #20, #937, #62, #126 ) ) ;
#481 = VECTOR ( 'NONE', #1100, 1000.000000000000000 ) ;
#482 = ORIENTED_EDGE ( 'NONE', *, *, #1205, .F. ) ;
#483 = VECTOR ( 'NONE', #524, 1000.000000000000000 ) ;
#484 = CARTESIAN_POINT ( 'NONE',  ( -1.570000000000000284, -3.649999999999999911, 0.2500000000000000000 ) ) ;
#485 = VERTEX_POINT ( 'NONE', #801 ) ;
#486 = ORIENTED_EDGE ( 'NONE', *, *, #1022, .F. ) ;
#487 = LINE ( 'NONE', #269, #474 ) ;
#488 = DIRECTION ( 'NONE',  ( 0.000000000000000000, 0.000000000000000000, 1.000000000000000000 ) ) ;
#489 = ORIENTED_EDGE ( 'NONE', *, *, #478, .T. ) ;
#490 = CARTESIAN_POINT ( 'NONE',  ( -1.519999999999996687, -29.00000000000000000, 0.2500000000000000000 ) ) ;
#491 = ORIENTED_EDGE ( 'NONE', *, *, #89, .F. ) ;
#492 = ADVANCED_FACE ( 'NONE', ( #311 ), #420, .T. ) ;
#493 = CARTESIAN_POINT ( 'NONE',  ( -1.520000000000000018, -3.061616997868383018E-17, 0.2500000000000000000 ) ) ;
#494 = ORIENTED_EDGE ( 'NONE', *, *, #911, .F. ) ;
#495 = EDGE_CURVE ( 'NONE', #136, #153, #1110, .T. ) ;
#496 = APPLICATION_CONTEXT ( 'automotive_design' ) ;
#497 = CYLINDRICAL_SURFACE ( 'NONE', #376, 2.750000000000000000 ) ;
#498 = EDGE_LOOP ( 'NONE', ( #458, #120, #696, #746 ) ) ;
#499 = CARTESIAN_POINT ( 'NONE',  ( -2.424999999999999822, 8.099999999999999645, 1.296871234934297679 ) ) ;
#500 = VECTOR ( 'NONE', #756, 1000.000000000000000 ) ;
#501 = DIRECTION ( 'NONE',  ( 1.224646799147353207E-16, -0.000000000000000000, 1.000000000000000000 ) ) ;
#502 = VERTEX_POINT ( 'NONE', #1194 ) ;
#503 = SPHERICAL_SURFACE ( 'NONE', #1197, 2.425000000000000266 ) ;
#504 = CARTESIAN_POINT ( 'NONE',  ( 0.9700000000000003064, -5.450000000000000178, -2.147366596101027536 ) ) ;
#505 = ADVANCED_BREP_SHAPE_REPRESENTATION ( 'SFH 4556', ( #767, #343, #794, #822 ), #579 ) ;
#506 = ORIENTED_EDGE ( 'NONE', *, *, #455, .T. ) ;
#507 = ORIENTED_EDGE ( 'NONE', *, *, #347, .F. ) ;
#508 = DIRECTION ( 'NONE',  ( 1.000000000000000000, 1.196361017915039732E-16, -0.000000000000000000 ) ) ;
#509 = VERTEX_POINT ( 'NONE', #797 ) ;
#510 = ORIENTED_EDGE ( 'NONE', *, *, #286, .F. ) ;
#511 = PRODUCT_DEFINITION ( 'UNKNOWN', '', #63, #443 ) ;
#512 = VERTEX_POINT ( 'NONE', #292 ) ;
#513 = DIRECTION ( 'NONE',  ( -0.000000000000000000, -1.000000000000000000, -0.000000000000000000 ) ) ;
#514 = CARTESIAN_POINT ( 'NONE',  ( 3.367778697655220519E-16, 0.000000000000000000, 2.749999999999998668 ) ) ;
#515 = ORIENTED_EDGE ( 'NONE', *, *, #811, .F. ) ;
#516 = ORIENTED_EDGE ( 'NONE', *, *, #907, .F. ) ;
#517 = DIRECTION ( 'NONE',  ( 0.000000000000000000, 0.000000000000000000, 1.000000000000000000 ) ) ;
#518 = ORIENTED_EDGE ( 'NONE', *, *, #1080, .F. ) ;
#519 = EDGE_LOOP ( 'NONE', ( #943, #146, #110, #510 ) ) ;
#520 = EDGE_LOOP ( 'NONE', ( #955, #489, #156, #741, #930, #985 ) ) ;
#521 = VERTEX_POINT ( 'NONE', #1186 ) ;
#522 = ORIENTED_EDGE ( 'NONE', *, *, #349, .F. ) ;
#523 = DIRECTION ( 'NONE',  ( -1.224646799147353207E-16, -1.000000000000000000, 0.000000000000000000 ) ) ;
#524 = DIRECTION ( 'NONE',  ( -0.000000000000000000, -0.000000000000000000, -1.000000000000000000 ) ) ;
#525 = ORIENTED_EDGE ( 'NONE', *, *, #415, .T. ) ;
#526 = ORIENTED_EDGE ( 'NONE', *, *, #771, .T. ) ;
#527 = DIRECTION ( 'NONE',  ( 0.000000000000000000, -1.000000000000000000, 0.000000000000000000 ) ) ;
#528 = ORIENTED_EDGE ( 'NONE', *, *, #288, .T. ) ;
#529 = DIRECTION ( 'NONE',  ( 1.000000000000000000, -1.196361017915039732E-16, 0.000000000000000000 ) ) ;
#530 = VERTEX_POINT ( 'NONE', #893 ) ;
#531 = ORIENTED_EDGE ( 'NONE', *, *, #803, .F. ) ;
#532 = FILL_AREA_STYLE_COLOUR ( '', #655 ) ;
#533 = DIRECTION ( 'NONE',  ( 0.000000000000000000, -1.000000000000000000, 0.000000000000000000 ) ) ;
#534 = ORIENTED_EDGE ( 'NONE', *, *, #212, .F. ) ;
#535 = EDGE_CURVE ( 'NONE', #860, #162, #1113, .T. ) ;
#536 = ORIENTED_EDGE ( 'NONE', *, *, #750, .F. ) ;
#537 = EDGE_CURVE ( 'NONE', #945, #131, #1106, .T. ) ;
#538 = ORIENTED_EDGE ( 'NONE', *, *, #132, .T. ) ;
#539 = CARTESIAN_POINT ( 'NONE',  ( -1.570000000000000284, -3.649999999999999911, -2.147366596101027536 ) ) ;
#540 = ORIENTED_EDGE ( 'NONE', *, *, #710, .F. ) ;
#541 = ORIENTED_EDGE ( 'NONE', *, *, #600, .T. ) ;
#542 = DIRECTION ( 'NONE',  ( -1.196361017915039486E-16, 1.000000000000000000, -0.000000000000000000 ) ) ;
#543 = CARTESIAN_POINT ( 'NONE',  ( 1.519999999999996687, -27.50000000000000000, -0.2500000000000000000 ) ) ;
#544 = VERTEX_POINT ( 'NONE', #165 ) ;
#545 = AXIS2_PLACEMENT_3D ( 'NONE', #493, #508, #1079 ) ;
#546 = SURFACE_SIDE_STYLE ('',( #275 ) ) ;
#547 = EDGE_LOOP ( 'NONE', ( #536, #318, #558, #719, #313, #1123, #516, #836 ) ) ;
#548 = EDGE_LOOP ( 'NONE', ( #1117, #878, #926, #309 ) ) ;
#549 = DIRECTION ( 'NONE',  ( 0.000000000000000000, 1.000000000000000000, 0.000000000000000000 ) ) ;
#550 = ORIENTED_EDGE ( 'NONE', *, *, #1155, .F. ) ;
#551 = ADVANCED_FACE ( 'NONE', ( #706 ), #430, .T. ) ;
#552 = ORIENTED_EDGE ( 'NONE', *, *, #1157, .T. ) ;
#553 = EDGE_CURVE ( 'NONE', #953, #342, #320, .T. ) ;
#554 = ORIENTED_EDGE ( 'NONE', *, *, #349, .T. ) ;
#555 = ORIENTED_EDGE ( 'NONE', *, *, #286, .T. ) ;
#556 = AXIS2_PLACEMENT_3D ( 'NONE', #759, #731, #160 ) ;
#557 = AXIS2_PLACEMENT_3D ( 'NONE', #1167, #319, #103 ) ;
#558 = ORIENTED_EDGE ( 'NONE', *, *, #887, .T. ) ;
#559 = UNCERTAINTY_MEASURE_WITH_UNIT (LENGTH_MEASURE( 1.000000000000000082E-05 ), #810, 'distance_accuracy_value', 'NONE');
#560 = DIRECTION ( 'NONE',  ( 0.000000000000000000, 0.000000000000000000, -1.000000000000000000 ) ) ;
#561 = VERTEX_POINT ( 'NONE', #417 ) ;
#562 = DIRECTION ( 'NONE',  ( 1.000000000000000000, 0.000000000000000000, 0.000000000000000000 ) ) ;
#563 = ORIENTED_EDGE ( 'NONE', *, *, #34, .T. ) ;
#564 = ORIENTED_EDGE ( 'NONE', *, *, #18, .F. ) ;
#565 = VECTOR ( 'NONE', #355, 1000.000000000000000 ) ;
#566 = VECTOR ( 'NONE', #816, 1000.000000000000000 ) ;
#567 = DIRECTION ( 'NONE',  ( 0.000000000000000000, -0.000000000000000000, 1.000000000000000000 ) ) ;
#568 = ORIENTED_EDGE ( 'NONE', *, *, #197, .T. ) ;
#569 = CARTESIAN_POINT ( 'NONE',  ( -2.425000000000000266, 5.674999999999999822, 2.969768487932331484E-16 ) ) ;
#570 = ORIENTED_EDGE ( 'NONE', *, *, #18, .T. ) ;
#571 = VECTOR ( 'NONE', #888, 1000.000000000000000 ) ;
#572 = ORIENTED_EDGE ( 'NONE', *, *, #811, .T. ) ;
#573 = SPHERICAL_SURFACE ( 'NONE', #381, 2.425000000000000266 ) ;
#574 = LINE ( 'NONE', #1070, #164 ) ;
#575 = FACE_OUTER_BOUND ( 'NONE', #429, .T. ) ;
#576 = DIRECTION ( 'NONE',  ( 0.000000000000000000, 0.000000000000000000, 1.000000000000000000 ) ) ;
#577 = ORIENTED_EDGE ( 'NONE', *, *, #728, .F. ) ;
#578 = LINE ( 'NONE', #1164, #995 ) ;
#579 =( GEOMETRIC_REPRESENTATION_CONTEXT ( 3 ) GLOBAL_UNCERTAINTY_ASSIGNED_CONTEXT ( ( #840 ) ) GLOBAL_UNIT_ASSIGNED_CONTEXT ( ( #195, #368, #419 ) ) REPRESENTATION_CONTEXT ( 'NONE', 'WORKASPACE' ) );
#580 = FACE_OUTER_BOUND ( 'NONE', #460, .T. ) ;
#581 = DIRECTION ( 'NONE',  ( -0.000000000000000000, -1.000000000000000000, -0.000000000000000000 ) ) ;
#582 = SURFACE_SIDE_STYLE ('',( #1033 ) ) ;
#583 = CARTESIAN_POINT ( 'NONE',  ( 0.000000000000000000, 1.449999999999999067, 0.000000000000000000 ) ) ;
#584 = LINE ( 'NONE', #877, #586 ) ;
#585 = CARTESIAN_POINT ( 'NONE',  ( 1.520000000000000018, -3.061616997868383018E-17, 0.2500000000000000000 ) ) ;
#586 = VECTOR ( 'NONE', #1159, 1000.000000000000000 ) ;
#587 = FACE_OUTER_BOUND ( 'NONE', #852, .T. ) ;
#588 = DIRECTION ( 'NONE',  ( -1.196361017915039486E-16, -1.000000000000000000, 0.000000000000000000 ) ) ;
#589 = ADVANCED_FACE ( 'NONE', ( #308 ), #657, .F. ) ;
#590 = VECTOR ( 'NONE', #222, 1000.000000000000000 ) ;
#591 = CARTESIAN_POINT ( 'NONE',  ( 1.570000000000000284, -3.649999999999999911, 0.2500000000000000000 ) ) ;
#592 = CARTESIAN_POINT ( 'NONE',  ( -1.570000000000000284, -3.649999999999999911, -0.2500000000000000000 ) ) ;
#593 = CIRCLE ( 'NONE', #557, 2.424999999999999822 ) ;
#594 = LINE ( 'NONE', #754, #1012 ) ;
#595 = CIRCLE ( 'NONE', #36, 2.750000000000001776 ) ;
#596 = PLANE ( 'NONE',  #219 ) ;
#597 = EDGE_CURVE ( 'NONE', #321, #722, #1118, .T. ) ;
#598 = VECTOR ( 'NONE', #1158, 1000.000000000000000 ) ;
#599 = CARTESIAN_POINT ( 'NONE',  ( 1.520000000000000018, -3.061616997868383018E-17, 0.2500000000000000000 ) ) ;
#600 = EDGE_CURVE ( 'NONE', #428, #326, #720, .T. ) ;
#601 = CARTESIAN_POINT ( 'NONE',  ( -2.424999999999999822, 1.449999999999999067, -1.296871234934297012 ) ) ;
#602 = EDGE_CURVE ( 'NONE', #663, #978, #1121, .T. ) ;
#603 = LINE ( 'NONE', #216, #634 ) ;
#604 = CARTESIAN_POINT ( 'NONE',  ( -2.424999999999999822, 0.000000000000000000, 1.296871234934297679 ) ) ;
#605 = VECTOR ( 'NONE', #527, 1000.000000000000000 ) ;
#606 = VECTOR ( 'NONE', #354, 1000.000000000000000 ) ;
#607 = FILL_AREA_STYLE_COLOUR ( '', #853 ) ;
#608 = LINE ( 'NONE', #631, #981 ) ;
#609 = LINE ( 'NONE', #462, #196 ) ;
#610 =( NAMED_UNIT ( * ) SI_UNIT ( $, .STERADIAN. ) SOLID_ANGLE_UNIT ( ) );
#611 = CARTESIAN_POINT ( 'NONE',  ( 1.570000000000000284, -5.450000000000000178, -0.2500000000000000000 ) ) ;
#612 = ADVANCED_FACE ( 'NONE', ( #1125 ), #1040, .F. ) ;
#613 = PLANE ( 'NONE',  #5 ) ;
#614 = EDGE_CURVE ( 'NONE', #544, #1149, #317, .T. ) ;
#615 = VECTOR ( 'NONE', #979, 1000.000000000000000 ) ;
#616 = AXIS2_PLACEMENT_3D ( 'NONE', #445, #694, #1162 ) ;
#617 = CARTESIAN_POINT ( 'NONE',  ( 1.520000000000000018, -3.061616997868383018E-17, 0.2500000000000000000 ) ) ;
#618 = CARTESIAN_POINT ( 'NONE',  ( -1.570000000000000284, -5.450000000000000178, -2.147366596101027536 ) ) ;
#619 = LINE ( 'NONE', #362, #233 ) ;
#620 = LINE ( 'NONE', #387, #1038 ) ;
#621 = FACE_OUTER_BOUND ( 'NONE', #298, .T. ) ;
#622 = PRESENTATION_STYLE_ASSIGNMENT (( #773 ) ) ;
#623 = DIRECTION ( 'NONE',  ( 0.000000000000000000, 0.000000000000000000, 1.000000000000000000 ) ) ;
#624 = CARTESIAN_POINT ( 'NONE',  ( 0.000000000000000000, 0.000000000000000000, 0.000000000000000000 ) ) ;
#625 = AXIS2_PLACEMENT_3D ( 'NONE', #1176, #15, #735 ) ;
#626 = FACE_OUTER_BOUND ( 'NONE', #1128, .T. ) ;
#627 =( LENGTH_UNIT ( ) NAMED_UNIT ( * ) SI_UNIT ( .MILLI., .METRE. ) );
#628 = DIRECTION ( 'NONE',  ( 0.000000000000000000, 0.000000000000000000, -1.000000000000000000 ) ) ;
#629 = FACE_OUTER_BOUND ( 'NONE', #498, .T. ) ;
#630 = VECTOR ( 'NONE', #1153, 1000.000000000000000 ) ;
#631 = CARTESIAN_POINT ( 'NONE',  ( 1.570000000000000284, -5.450000000000000178, -0.2500000000000000000 ) ) ;
#632 = EDGE_CURVE ( 'NONE', #179, #442, #700, .T. ) ;
#633 = LINE ( 'NONE', #1002, #249 ) ;
#634 = VECTOR ( 'NONE', #139, 1000.000000000000000 ) ;
#635 = PLANE ( 'NONE',  #359 ) ;
#636 = FACE_OUTER_BOUND ( 'NONE', #107, .T. ) ;
#637 = CARTESIAN_POINT ( 'NONE',  ( 0.9700000000000003064, -5.450000000000000178, 0.2500000000000000000 ) ) ;
#638 = CARTESIAN_POINT ( 'NONE',  ( 1.520000000000000018, -3.061616997868383018E-17, -0.2500000000000000000 ) ) ;
#639 = DIRECTION ( 'NONE',  ( 0.000000000000000000, 0.000000000000000000, 1.000000000000000000 ) ) ;
#640 = LINE ( 'NONE', #751, #243 ) ;
#641 = VECTOR ( 'NONE', #35, 1000.000000000000000 ) ;
#642 = VERTEX_POINT ( 'NONE', #1058 ) ;
#643 = CARTESIAN_POINT ( 'NONE',  ( 1.519999999999996687, -27.50000000000000000, -0.2500000000000000000 ) ) ;
#644 = AXIS2_PLACEMENT_3D ( 'NONE', #348, #712, #357 ) ;
#645 = FACE_OUTER_BOUND ( 'NONE', #520, .T. ) ;
#646 = DIRECTION ( 'NONE',  ( 0.000000000000000000, -1.000000000000000000, 0.000000000000000000 ) ) ;
#647 = CARTESIAN_POINT ( 'NONE',  ( 0.000000000000000000, 5.674999999999999822, -2.425000000000000266 ) ) ;
#648 = ORIENTED_EDGE ( 'NONE', *, *, #986, .F. ) ;
#649 = VECTOR ( 'NONE', #193, 1000.000000000000000 ) ;
#650 = LINE ( 'NONE', #147, #261 ) ;
#651 = EDGE_CURVE ( 'NONE', #51, #544, #236, .T. ) ;
#652 = ORIENTED_EDGE ( 'NONE', *, *, #197, .F. ) ;
#653 = VECTOR ( 'NONE', #588, 1000.000000000000000 ) ;
#654 = EDGE_CURVE ( 'NONE', #509, #909, #214, .T. ) ;
#655 = COLOUR_RGB ( '',0.7921568627450980005, 0.8196078431372548767, 0.9333333333333333481 ) ;
#656 = VECTOR ( 'NONE', #262, 1000.000000000000000 ) ;
#657 = PLANE ( 'NONE',  #416 ) ;
#658 = ORIENTED_EDGE ( 'NONE', *, *, #1114, .T. ) ;
#659 = CARTESIAN_POINT ( 'NONE',  ( 1.519999999999999574, -3.649999999999999911, 0.2500000000000000000 ) ) ;
#660 = VERTEX_POINT ( 'NONE', #777 ) ;
#661 = VECTOR ( 'NONE', #239, 1000.000000000000000 ) ;
#662 = AXIS2_PLACEMENT_3D ( 'NONE', #186, #1020, #37 ) ;
#663 = VERTEX_POINT ( 'NONE', #1156 ) ;
#664 = VERTEX_POINT ( 'NONE', #707 ) ;
#665 = FACE_OUTER_BOUND ( 'NONE', #519, .T. ) ;
#666 = CYLINDRICAL_SURFACE ( 'NONE', #814, 2.750000000000000000 ) ;
#667 = DIRECTION ( 'NONE',  ( 0.000000000000000000, 0.000000000000000000, -1.000000000000000000 ) ) ;
#668 = EDGE_LOOP ( 'NONE', ( #29, #305, #526, #821 ) ) ;
#669 = FACE_OUTER_BOUND ( 'NONE', #886, .T. ) ;
#670 = LINE ( 'NONE', #643, #1066 ) ;
#671 = CARTESIAN_POINT ( 'NONE',  ( 1.520000000000000018, -3.061616997868383018E-17, -0.2500000000000000000 ) ) ;
#672 = CARTESIAN_POINT ( 'NONE',  ( 1.570000000000000284, -5.450000000000000178, -2.147366596101027536 ) ) ;
#673 = EDGE_CURVE ( 'NONE', #457, #472, #244, .T. ) ;
#674 = AXIS2_PLACEMENT_3D ( 'NONE', #330, #8, #340 ) ;
#675 = VECTOR ( 'NONE', #581, 1000.000000000000000 ) ;
#676 = EDGE_LOOP ( 'NONE', ( #494, #572, #525, #135 ) ) ;
#677 = FACE_OUTER_BOUND ( 'NONE', #272, .T. ) ;
#678 = DIRECTION ( 'NONE',  ( 0.000000000000000000, 1.000000000000000000, 0.000000000000000000 ) ) ;
#679 = ORIENTED_EDGE ( 'NONE', *, *, #780, .T. ) ;
#680 = VECTOR ( 'NONE', #815, 1000.000000000000000 ) ;
#681 = CARTESIAN_POINT ( 'NONE',  ( 0.000000000000000000, 0.000000000000000000, -2.749999999999998668 ) ) ;
#682 = LINE ( 'NONE', #113, #675 ) ;
#683 = FACE_OUTER_BOUND ( 'NONE', #96, .T. ) ;
#684 = CIRCLE ( 'NONE', #449, 2.750000000000001776 ) ;
#685 = FILL_AREA_STYLE_COLOUR ( '', #1031 ) ;
#686 = CARTESIAN_POINT ( 'NONE',  ( 0.000000000000000000, 1.449999999999999067, 0.000000000000000000 ) ) ;
#687 =( GEOMETRIC_REPRESENTATION_CONTEXT ( 3 ) GLOBAL_UNCERTAINTY_ASSIGNED_CONTEXT ( ( #425 ) ) GLOBAL_UNIT_ASSIGNED_CONTEXT ( ( #912, #809, #1010 ) ) REPRESENTATION_CONTEXT ( 'NONE', 'WORKASPACE' ) );
#688 = ORIENTED_EDGE ( 'NONE', *, *, #1006, .T. ) ;
#689 = DIRECTION ( 'NONE',  ( 0.000000000000000000, -0.000000000000000000, -1.000000000000000000 ) ) ;
#690 = FACE_OUTER_BOUND ( 'NONE', #69, .T. ) ;
#691 = EDGE_LOOP ( 'NONE', ( #491, #541, #744, #1105 ) ) ;
#692 = ADVANCED_FACE ( 'NONE', ( #621 ), #1204, .F. ) ;
#693 = FACE_OUTER_BOUND ( 'NONE', #548, .T. ) ;
#694 = DIRECTION ( 'NONE',  ( 1.000000000000000000, 0.000000000000000000, 0.000000000000000000 ) ) ;
#695 = DIRECTION ( 'NONE',  ( 1.000000000000000000, 0.000000000000000000, 0.000000000000000000 ) ) ;
#696 = ORIENTED_EDGE ( 'NONE', *, *, #864, .F. ) ;
#697 = DIRECTION ( 'NONE',  ( 1.196361017915039486E-16, 1.000000000000000000, 0.000000000000000000 ) ) ;
#698 = ORIENTED_EDGE ( 'NONE', *, *, #1136, .T. ) ;
#699 = STYLED_ITEM ( 'NONE', ( #1098 ), #505 ) ;
#700 = LINE ( 'NONE', #819, #1024 ) ;
#701 = ORIENTED_EDGE ( 'NONE', *, *, #710, .T. ) ;
#702 = DIRECTION ( 'NONE',  ( 0.000000000000000000, 0.000000000000000000, -1.000000000000000000 ) ) ;
#703 = CARTESIAN_POINT ( 'NONE',  ( -1.520000000000000018, -3.061616997868383018E-17, -0.2500000000000000000 ) ) ;
#704 = VECTOR ( 'NONE', #40, 1000.000000000000000 ) ;
#705 = EDGE_LOOP ( 'NONE', ( #540, #563, #894, #238 ) ) ;
#706 = FACE_OUTER_BOUND ( 'NONE', #1101, .T. ) ;
#707 = CARTESIAN_POINT ( 'NONE',  ( -1.020000000000000018, 3.061616997868383018E-17, -0.2500000000000000000 ) ) ;
#708 = CARTESIAN_POINT ( 'NONE',  ( -1.520000000000000018, -3.061616997868383018E-17, -0.2500000000000000000 ) ) ;
#709 = ORIENTED_EDGE ( 'NONE', *, *, #986, .T. ) ;
#710 = EDGE_CURVE ( 'NONE', #747, #1055, #603, .T. ) ;
#711 = CIRCLE ( 'NONE', #752, 2.425000000000000266 ) ;
#712 = DIRECTION ( 'NONE',  ( 0.000000000000000000, 0.000000000000000000, -1.000000000000000000 ) ) ;
#713 = ORIENTED_EDGE ( 'NONE', *, *, #537, .F. ) ;
#714 = ORIENTED_EDGE ( 'NONE', *, *, #614, .T. ) ;
#715 = PLANE ( 'NONE',  #545 ) ;
#716 = ORIENTED_EDGE ( 'NONE', *, *, #931, .T. ) ;
#717 = VECTOR ( 'NONE', #284, 1000.000000000000000 ) ;
#718 = CARTESIAN_POINT ( 'NONE',  ( 1.020000000000000018, 3.061616997868383018E-17, -0.2500000000000000000 ) ) ;
#719 = ORIENTED_EDGE ( 'NONE', *, *, #727, .T. ) ;
#720 = CIRCLE ( 'NONE', #932, 2.425000000000000266 ) ;
#721 = ADVANCED_FACE ( 'NONE', ( #207 ), #476, .T. ) ;
#722 = VERTEX_POINT ( 'NONE', #205 ) ;
#723 = VECTOR ( 'NONE', #1202, 1000.000000000000000 ) ;
#724 = ORIENTED_EDGE ( 'NONE', *, *, #1039, .T. ) ;
#725 = CARTESIAN_POINT ( 'NONE',  ( -2.424999999999999378, 1.449999999999999067, 0.000000000000000000 ) ) ;
#726 = APPLICATION_PROTOCOL_DEFINITION ( 'draft international standard', 'automotive_design', 1998, #31 ) ;
#727 = EDGE_CURVE ( 'NONE', #951, #153, #593, .T. ) ;
#728 = EDGE_CURVE ( 'NONE', #832, #1073, #620, .T. ) ;
#729 = LINE ( 'NONE', #838, #1127 ) ;
#730 = ORIENTED_EDGE ( 'NONE', *, *, #1056, .F. ) ;
#731 = DIRECTION ( 'NONE',  ( 1.224646799147353207E-16, -1.000000000000000000, 0.000000000000000000 ) ) ;
#732 = EDGE_CURVE ( 'NONE', #1077, #663, #609, .T. ) ;
#733 = CARTESIAN_POINT ( 'NONE',  ( -1.570000000000000284, -3.649999999999999911, -0.2500000000000004441 ) ) ;
#734 = ORIENTED_EDGE ( 'NONE', *, *, #944, .T. ) ;
#735 = DIRECTION ( 'NONE',  ( 1.000000000000000000, 0.000000000000000000, 0.000000000000000000 ) ) ;
#736 = ORIENTED_EDGE ( 'NONE', *, *, #1155, .T. ) ;
#737 = ORIENTED_EDGE ( 'NONE', *, *, #1039, .F. ) ;
#738 = CARTESIAN_POINT ( 'NONE',  ( 1.020000000000000018, 3.061616997868383018E-17, 0.2500000000000000000 ) ) ;
#739 = VECTOR ( 'NONE', #783, 1000.000000000000000 ) ;
#740 = AXIS2_PLACEMENT_3D ( 'NONE', #1134, #413, #366 ) ;
#741 = ORIENTED_EDGE ( 'NONE', *, *, #1200, .T. ) ;
#742 =( NAMED_UNIT ( * ) PLANE_ANGLE_UNIT ( ) SI_UNIT ( $, .RADIAN. ) );
#743 = DIRECTION ( 'NONE',  ( 0.000000000000000000, 1.000000000000000000, 0.000000000000000000 ) ) ;
#744 = ORIENTED_EDGE ( 'NONE', *, *, #16, .F. ) ;
#745 = PLANE ( 'NONE',  #625 ) ;
#746 = ORIENTED_EDGE ( 'NONE', *, *, #1006, .F. ) ;
#747 = VERTEX_POINT ( 'NONE', #383 ) ;
#748 = CARTESIAN_POINT ( 'NONE',  ( -2.425000000000000266, 1.449999999999999067, 0.000000000000000000 ) ) ;
#749 = VERTEX_POINT ( 'NONE', #947 ) ;
#750 = EDGE_CURVE ( 'NONE', #179, #561, #595, .T. ) ;
#751 = CARTESIAN_POINT ( 'NONE',  ( 1.570000000000000284, -5.450000000000000178, 0.2500000000000000000 ) ) ;
#752 = AXIS2_PLACEMENT_3D ( 'NONE', #1104, #173, #379 ) ;
#753 = CARTESIAN_POINT ( 'NONE',  ( 0.000000000000000000, 0.000000000000000000, 0.000000000000000000 ) ) ;
#754 = CARTESIAN_POINT ( 'NONE',  ( 1.570000000000000284, -5.450000000000000178, -2.147366596101027536 ) ) ;
#755 = DIRECTION ( 'NONE',  ( 0.000000000000000000, 0.000000000000000000, 1.000000000000000000 ) ) ;
#756 = DIRECTION ( 'NONE',  ( 0.000000000000000000, 0.000000000000000000, -1.000000000000000000 ) ) ;
#757 = ADVANCED_FACE ( 'NONE', ( #1018 ), #849, .T. ) ;
#758 = AXIS2_PLACEMENT_3D ( 'NONE', #266, #1097, #755 ) ;
#759 = CARTESIAN_POINT ( 'NONE',  ( -1.520000000000000018, -3.061616997868383018E-17, 0.2500000000000000000 ) ) ;
#760 = CARTESIAN_POINT ( 'NONE',  ( 1.519999999999996687, -27.50000000000000000, 0.2500000000000000000 ) ) ;
#761 = SURFACE_STYLE_USAGE ( .BOTH. , #546 ) ;
#762 = ADVANCED_FACE ( 'NONE', ( #626 ), #352, .T. ) ;
#763 = DIRECTION ( 'NONE',  ( 0.000000000000000000, 0.000000000000000000, 1.000000000000000000 ) ) ;
#764 = CARTESIAN_POINT ( 'NONE',  ( 1.570000000000000284, -3.649999999999999911, -2.147366596101027536 ) ) ;
#765 = CARTESIAN_POINT ( 'NONE',  ( 0.000000000000000000, 5.674999999999999822, 0.000000000000000000 ) ) ;
#766 = DIRECTION ( 'NONE',  ( 1.196361017915039486E-16, -1.000000000000000000, 0.000000000000000000 ) ) ;
#767 = MANIFOLD_SOLID_BREP ( 'Cut-Extrude1', #125 ) ;
#768 = DIRECTION ( 'NONE',  ( 1.000000000000000000, 0.000000000000000000, 0.000000000000000000 ) ) ;
#769 = CARTESIAN_POINT ( 'NONE',  ( 1.520000000000000018, -3.061616997868383018E-17, 0.2500000000000000000 ) ) ;
#770 = EDGE_CURVE ( 'NONE', #276, #321, #241, .T. ) ;
#771 = EDGE_CURVE ( 'NONE', #642, #1077, #1013, .T. ) ;
#772 = EDGE_CURVE ( 'NONE', #978, #105, #203, .T. ) ;
#773 = SURFACE_STYLE_USAGE ( .BOTH. , #582 ) ;
#774 = DIRECTION ( 'NONE',  ( 0.000000000000000000, 0.000000000000000000, 1.000000000000000000 ) ) ;
#775 = STYLED_ITEM ( 'NONE', ( #52 ), #343 ) ;
#776 = FILL_AREA_STYLE ('',( #607 ) ) ;
#777 = CARTESIAN_POINT ( 'NONE',  ( -1.019999999999996687, -5.450000000000000178, -0.2500000000000000000 ) ) ;
#778 = CARTESIAN_POINT ( 'NONE',  ( -0.9700000000000003064, -5.450000000000000178, -0.2500000000000000000 ) ) ;
#779 = ADVANCED_FACE ( 'NONE', ( #224 ), #365, .F. ) ;
#780 = EDGE_CURVE ( 'NONE', #48, #338, #211, .T. ) ;
#781 = AXIS2_PLACEMENT_3D ( 'NONE', #1173, #678, #1047 ) ;
#782 = CARTESIAN_POINT ( 'NONE',  ( 1.484884243966165742E-16, 8.099999999999999645, 0.000000000000000000 ) ) ;
#783 = DIRECTION ( 'NONE',  ( 1.000000000000000000, -0.000000000000000000, -0.000000000000000000 ) ) ;
#784 = CARTESIAN_POINT ( 'NONE',  ( -1.519999999999996687, -29.00000000000000000, 0.2500000000000000000 ) ) ;
#785 = CARTESIAN_POINT ( 'NONE',  ( -1.520000000000000018, -3.649999999999999911, 0.2500000000000000000 ) ) ;
#786 = CARTESIAN_POINT ( 'NONE',  ( 1.019999999999999352, -5.450000000000000178, 0.2500000000000000000 ) ) ;
#787 = CARTESIAN_POINT ( 'NONE',  ( -1.519999999999999352, -5.449999999999998401, -0.2500000000000000000 ) ) ;
#788 = ADVANCED_FACE ( 'NONE', ( #260 ), #400, .T. ) ;
#789 = DIRECTION ( 'NONE',  ( 0.000000000000000000, 1.000000000000000000, 0.000000000000000000 ) ) ;
#790 = CARTESIAN_POINT ( 'NONE',  ( 1.019999999999996909, -27.49999999999999289, -0.2500000000000000000 ) ) ;
#791 = DIRECTION ( 'NONE',  ( -1.000000000000000000, 0.000000000000000000, 0.000000000000000000 ) ) ;
#792 = AXIS2_PLACEMENT_3D ( 'NONE', #382, #825, #201 ) ;
#793 = CARTESIAN_POINT ( 'NONE',  ( 1.520000000000000018, -3.061616997868383018E-17, -0.2500000000000000000 ) ) ;
#794 = MANIFOLD_SOLID_BREP ( 'Cut-Extrude2', #339 ) ;
#795 = CARTESIAN_POINT ( 'NONE',  ( 1.520000000000000018, -3.649999999999999911, 0.2500000000000000000 ) ) ;
#796 = DIRECTION ( 'NONE',  ( 0.000000000000000000, 0.000000000000000000, 1.000000000000000000 ) ) ;
#797 = CARTESIAN_POINT ( 'NONE',  ( -1.519999999999996687, -29.00000000000000000, -0.2500000000000000000 ) ) ;
#798 = DIRECTION ( 'NONE',  ( -1.000000000000000000, 0.000000000000000000, 0.000000000000000000 ) ) ;
#799 = DIRECTION ( 'NONE',  ( -0.000000000000000000, -1.000000000000000000, -0.000000000000000000 ) ) ;
#800 = CARTESIAN_POINT ( 'NONE',  ( 1.019999999999996687, -27.50000000000000000, 0.2500000000000000000 ) ) ;
#801 = CARTESIAN_POINT ( 'NONE',  ( 0.9700000000000003064, -5.450000000000000178, -0.2500000000000000000 ) ) ;
#802 = PRODUCT_CONTEXT ( 'NONE', #496, 'mechanical' ) ;
#803 = EDGE_CURVE ( 'NONE', #1048, #521, #213, .T. ) ;
#804 = EDGE_CURVE ( 'NONE', #1149, #1148, #633, .T. ) ;
#805 = SURFACE_SIDE_STYLE ('',( #1034 ) ) ;
#806 = DIRECTION ( 'NONE',  ( -1.000000000000000000, -1.224646799147353207E-16, -0.000000000000000000 ) ) ;
#807 = PLANE ( 'NONE',  #1115 ) ;
#808 = ADVANCED_FACE ( 'NONE', ( #629 ), #1187, .T. ) ;
#809 =( NAMED_UNIT ( * ) PLANE_ANGLE_UNIT ( ) SI_UNIT ( $, .RADIAN. ) );
#810 =( LENGTH_UNIT ( ) NAMED_UNIT ( * ) SI_UNIT ( .MILLI., .METRE. ) );
#811 = EDGE_CURVE ( 'NONE', #660, #860, #254, .T. ) ;
#812 = CARTESIAN_POINT ( 'NONE',  ( 1.020000000000000018, 3.061616997868383018E-17, 0.2500000000000000000 ) ) ;
#813 =( GEOMETRIC_REPRESENTATION_CONTEXT ( 3 ) GLOBAL_UNCERTAINTY_ASSIGNED_CONTEXT ( ( #1 ) ) GLOBAL_UNIT_ASSIGNED_CONTEXT ( ( #627, #742, #610 ) ) REPRESENTATION_CONTEXT ( 'NONE', 'WORKASPACE' ) );
#814 = AXIS2_PLACEMENT_3D ( 'NONE', #336, #391, #702 ) ;
#815 = DIRECTION ( 'NONE',  ( 0.000000000000000000, -1.000000000000000000, 0.000000000000000000 ) ) ;
#816 = DIRECTION ( 'NONE',  ( -1.196361017915039486E-16, -1.000000000000000000, 0.000000000000000000 ) ) ;
#817 = DIRECTION ( 'NONE',  ( 1.000000000000000000, 0.000000000000000000, -0.000000000000000000 ) ) ;
#818 = EDGE_CURVE ( 'NONE', #153, #442, #1037, .T. ) ;
#819 = CARTESIAN_POINT ( 'NONE',  ( -2.424999999999999378, 1.449999999999999067, 0.000000000000000000 ) ) ;
#820 = DIRECTION ( 'NONE',  ( 0.000000000000000000, 0.000000000000000000, -1.000000000000000000 ) ) ;
#821 = ORIENTED_EDGE ( 'NONE', *, *, #316, .F. ) ;
#822 = AXIS2_PLACEMENT_3D ( 'NONE', #624, #41, #361 ) ;
#823 = CARTESIAN_POINT ( 'NONE',  ( 1.570000000000000284, -5.450000000000000178, -2.147366596101027536 ) ) ;
#824 = ORIENTED_EDGE ( 'NONE', *, *, #654, .F. ) ;
#825 = DIRECTION ( 'NONE',  ( -0.000000000000000000, -1.000000000000000000, -0.000000000000000000 ) ) ;
#826 = CLOSED_SHELL ( 'NONE', ( #370, #917, #779, #351, #987, #692, #466, #1025, #762, #3, #551, #141, #215, #1175 ) ) ;
#827 = ORIENTED_EDGE ( 'NONE', *, *, #406, .T. ) ;
#828 = EDGE_CURVE ( 'NONE', #1073, #509, #619, .T. ) ;
#829 = ADVANCED_FACE ( 'NONE', ( #636 ), #412, .F. ) ;
#830 = DIRECTION ( 'NONE',  ( -0.000000000000000000, 0.000000000000000000, -1.000000000000000000 ) ) ;
#831 = DIRECTION ( 'NONE',  ( -1.000000000000000000, 0.000000000000000000, 0.000000000000000000 ) ) ;
#832 = VERTEX_POINT ( 'NONE', #1122 ) ;
#833 = DIRECTION ( 'NONE',  ( 1.196361017915039732E-16, 1.000000000000000000, 0.000000000000000000 ) ) ;
#834 = ORIENTED_EDGE ( 'NONE', *, *, #908, .T. ) ;
#835 = AXIS2_PLACEMENT_3D ( 'NONE', #151, #743, #477 ) ;
#836 = ORIENTED_EDGE ( 'NONE', *, *, #180, .F. ) ;
#837 = CARTESIAN_POINT ( 'NONE',  ( -1.019999999999996687, -29.00000000000000000, 0.2500000000000000000 ) ) ;
#838 = CARTESIAN_POINT ( 'NONE',  ( 1.520000000000000018, -3.061616997868383018E-17, 0.2500000000000000000 ) ) ;
#839 = VERTEX_POINT ( 'NONE', #1190 ) ;
#840 = UNCERTAINTY_MEASURE_WITH_UNIT (LENGTH_MEASURE( 1.000000000000000082E-05 ), #195, 'distance_accuracy_value', 'NONE');
#841 = CARTESIAN_POINT ( 'NONE',  ( 1.570000000000000284, -5.450000000000000178, 0.2500000000000000000 ) ) ;
#842 = CARTESIAN_POINT ( 'NONE',  ( 1.019999999999996687, -5.450000000000000178, -0.2500000000000000000 ) ) ;
#843 = ORIENTED_EDGE ( 'NONE', *, *, #380, .T. ) ;
#844 = ORIENTED_EDGE ( 'NONE', *, *, #210, .T. ) ;
#845 = EDGE_CURVE ( 'NONE', #437, #276, #237, .T. ) ;
#846 = EDGE_CURVE ( 'NONE', #38, #1048, #640, .T. ) ;
#847 = VERTEX_POINT ( 'NONE', #1107 ) ;
#848 = VECTOR ( 'NONE', #850, 1000.000000000000000 ) ;
#849 = PLANE ( 'NONE',  #781 ) ;
#850 = DIRECTION ( 'NONE',  ( 0.000000000000000000, 1.000000000000000000, 0.000000000000000000 ) ) ;
#851 = ADVANCED_FACE ( 'NONE', ( #1043 ), #77, .F. ) ;
#852 = EDGE_LOOP ( 'NONE', ( #919, #714, #737, #71 ) ) ;
#853 = COLOUR_RGB ( '',0.7921568627450980005, 0.8196078431372548767, 0.9333333333333333481 ) ;
#854 = CARTESIAN_POINT ( 'NONE',  ( -1.570000000000000284, -5.450000000000000178, -0.2500000000000000000 ) ) ;
#855 = EDGE_LOOP ( 'NONE', ( #857, #1103, #465, #469 ) ) ;
#856 = LINE ( 'NONE', #1188, #883 ) ;
#857 = ORIENTED_EDGE ( 'NONE', *, *, #602, .T. ) ;
#858 = LINE ( 'NONE', #422, #500 ) ;
#859 = DIRECTION ( 'NONE',  ( 1.000000000000000000, -1.196361017915039732E-16, 0.000000000000000000 ) ) ;
#860 = VERTEX_POINT ( 'NONE', #778 ) ;
#861 = DIRECTION ( 'NONE',  ( 0.000000000000000000, 0.000000000000000000, 1.000000000000000000 ) ) ;
#862 = CARTESIAN_POINT ( 'NONE',  ( -1.520000000000000018, -3.061616997868383018E-17, 0.2500000000000000000 ) ) ;
#863 = ORIENTED_EDGE ( 'NONE', *, *, #770, .T. ) ;
#864 = EDGE_CURVE ( 'NONE', #451, #544, #246, .T. ) ;
#865 = PLANE ( 'NONE',  #204 ) ;
#866 = EDGE_LOOP ( 'NONE', ( #1130, #79, #453, #123, #116 ) ) ;
#867 = LINE ( 'NONE', #592, #447 ) ;
#868 = AXIS2_PLACEMENT_3D ( 'NONE', #66, #185, #277 ) ;
#869 = ORIENTED_EDGE ( 'NONE', *, *, #380, .F. ) ;
#870 = SURFACE_STYLE_FILL_AREA ( #776 ) ;
#871 = CARTESIAN_POINT ( 'NONE',  ( 1.020000000000000018, 3.061616997868383018E-17, -0.2500000000000000000 ) ) ;
#872 = LINE ( 'NONE', #760, #88 ) ;
#873 = DIRECTION ( 'NONE',  ( 0.000000000000000000, 1.000000000000000000, 0.000000000000000000 ) ) ;
#874 = CARTESIAN_POINT ( 'NONE',  ( -1.019999999999996687, -29.00000000000000000, 0.2500000000000000000 ) ) ;
#875 = ORIENTED_EDGE ( 'NONE', *, *, #984, .F. ) ;
#876 = CIRCLE ( 'NONE', #293, 2.749999999999998668 ) ;
#877 = CARTESIAN_POINT ( 'NONE',  ( -1.520000000000000018, -3.061616997868383018E-17, 0.2500000000000000000 ) ) ;
#878 = ORIENTED_EDGE ( 'NONE', *, *, #212, .T. ) ;
#879 = LINE ( 'NONE', #1174, #848 ) ;
#880 = EDGE_LOOP ( 'NONE', ( #315, #701, #550, #444 ) ) ;
#881 = CARTESIAN_POINT ( 'NONE',  ( 1.520000000000000018, -3.649999999999999911, -0.2500000000000000000 ) ) ;
#882 = ORIENTED_EDGE ( 'NONE', *, *, #452, .F. ) ;
#883 = VECTOR ( 'NONE', #913, 1000.000000000000000 ) ;
#884 = DIRECTION ( 'NONE',  ( -1.000000000000000000, 0.000000000000000000, 0.000000000000000000 ) ) ;
#885 = CARTESIAN_POINT ( 'NONE',  ( -0.9700000000000003064, -5.450000000000000178, 0.2500000000000000000 ) ) ;
#886 = EDGE_LOOP ( 'NONE', ( #1146, #734, #424, #154, #159 ) ) ;
#887 = EDGE_CURVE ( 'NONE', #442, #951, #1049, .T. ) ;
#888 = DIRECTION ( 'NONE',  ( -0.000000000000000000, -0.000000000000000000, -1.000000000000000000 ) ) ;
#889 = ORIENTED_EDGE ( 'NONE', *, *, #804, .F. ) ;
#890 = LINE ( 'NONE', #19, #98 ) ;
#891 = ORIENTED_EDGE ( 'NONE', *, *, #288, .F. ) ;
#892 = VECTOR ( 'NONE', #140, 1000.000000000000000 ) ;
#893 = CARTESIAN_POINT ( 'NONE',  ( -1.570000000000000284, -5.450000000000000178, -0.2500000000000000000 ) ) ;
#894 = ORIENTED_EDGE ( 'NONE', *, *, #1041, .T. ) ;
#895 = CIRCLE ( 'NONE', #1046, 2.425000000000000266 ) ;
#896 = CARTESIAN_POINT ( 'NONE',  ( 1.019999999999996687, -27.50000000000000000, 0.2500000000000000000 ) ) ;
#897 = ORIENTED_EDGE ( 'NONE', *, *, #1041, .F. ) ;
#898 = ADVANCED_FACE ( 'NONE', ( #669 ), #1074, .T. ) ;
#899 = VECTOR ( 'NONE', #695, 1000.000000000000000 ) ;
#900 = AXIS2_PLACEMENT_3D ( 'NONE', #964, #1036, #322 ) ;
#901 = ORIENTED_EDGE ( 'NONE', *, *, #17, .T. ) ;
#902 = VECTOR ( 'NONE', #1084, 1000.000000000000000 ) ;
#903 = EDGE_LOOP ( 'NONE', ( #844, #112, #724, #115 ) ) ;
#904 = FACE_OUTER_BOUND ( 'NONE', #855, .T. ) ;
#905 = CARTESIAN_POINT ( 'NONE',  ( -0.9700000000000003064, -5.450000000000000178, -0.2500000000000000000 ) ) ;
#906 = DIRECTION ( 'NONE',  ( 0.000000000000000000, -1.000000000000000000, 0.000000000000000000 ) ) ;
#907 = EDGE_CURVE ( 'NONE', #847, #642, #684, .T. ) ;
#908 = EDGE_CURVE ( 'NONE', #832, #749, #1071, .T. ) ;
#909 = VERTEX_POINT ( 'NONE', #950 ) ;
#910 = CYLINDRICAL_SURFACE ( 'NONE', #662, 2.750000000000000000 ) ;
#911 = EDGE_CURVE ( 'NONE', #660, #276, #278, .T. ) ;
#912 =( LENGTH_UNIT ( ) NAMED_UNIT ( * ) SI_UNIT ( .MILLI., .METRE. ) );
#913 = DIRECTION ( 'NONE',  ( 1.000000000000000000, 0.000000000000000000, 0.000000000000000000 ) ) ;
#914 = ORIENTED_EDGE ( 'NONE', *, *, #150, .F. ) ;
#915 = CARTESIAN_POINT ( 'NONE',  ( -1.020000000000000018, 3.061616997868383018E-17, 0.2500000000000000000 ) ) ;
#916 = EDGE_LOOP ( 'NONE', ( #528, #172, #713, #555 ) ) ;
#917 = ADVANCED_FACE ( 'NONE', ( #665 ), #1206, .F. ) ;
#918 = ORIENTED_EDGE ( 'NONE', *, *, #403, .T. ) ;
#919 = ORIENTED_EDGE ( 'NONE', *, *, #864, .T. ) ;
#920 = ORIENTED_EDGE ( 'NONE', *, *, #1178, .F. ) ;
#921 = CARTESIAN_POINT ( 'NONE',  ( -0.9700000000000003064, -5.450000000000000178, 0.2500000000000000000 ) ) ;
#922 = AXIS2_PLACEMENT_3D ( 'NONE', #1109, #533, #280 ) ;
#923 = ORIENTED_EDGE ( 'NONE', *, *, #1193, .T. ) ;
#924 = ORIENTED_EDGE ( 'NONE', *, *, #1111, .F. ) ;
#925 = ORIENTED_EDGE ( 'NONE', *, *, #17, .F. ) ;
#926 = ORIENTED_EDGE ( 'NONE', *, *, #452, .T. ) ;
#927 = ORIENTED_EDGE ( 'NONE', *, *, #405, .T. ) ;
#928 = EDGE_LOOP ( 'NONE', ( #58, #341, #333, #27 ) ) ;
#929 = DIRECTION ( 'NONE',  ( -1.000000000000000000, 0.000000000000000000, -0.000000000000000000 ) ) ;
#930 = ORIENTED_EDGE ( 'NONE', *, *, #887, .F. ) ;
#931 = EDGE_CURVE ( 'NONE', #335, #457, #1065, .T. ) ;
#932 = AXIS2_PLACEMENT_3D ( 'NONE', #73, #190, #299 ) ;
#933 = ORIENTED_EDGE ( 'NONE', *, *, #149, .T. ) ;
#934 = ORIENTED_EDGE ( 'NONE', *, *, #300, .F. ) ;
#935 = ORIENTED_EDGE ( 'NONE', *, *, #167, .F. ) ;
#936 = ORIENTED_EDGE ( 'NONE', *, *, #931, .F. ) ;
#937 = ORIENTED_EDGE ( 'NONE', *, *, #89, .T. ) ;
#938 = ORIENTED_EDGE ( 'NONE', *, *, #673, .F. ) ;
#939 = VERTEX_POINT ( 'NONE', #87 ) ;
#940 = EDGE_LOOP ( 'NONE', ( #927, #534, #570, #658, #538, #942, #554, #130, #99, #688, #506, #679 ) ) ;
#941 = ORIENTED_EDGE ( 'NONE', *, *, #602, .F. ) ;
#942 = ORIENTED_EDGE ( 'NONE', *, *, #984, .T. ) ;
#943 = ORIENTED_EDGE ( 'NONE', *, *, #1157, .F. ) ;
#944 = EDGE_CURVE ( 'NONE', #326, #136, #274, .T. ) ;
#945 = VERTEX_POINT ( 'NONE', #334 ) ;
#946 = ORIENTED_EDGE ( 'NONE', *, *, #728, .T. ) ;
#947 = CARTESIAN_POINT ( 'NONE',  ( -1.519999999999996687, -29.00000000000000000, 0.2500000000000000000 ) ) ;
#948 = AXIS2_PLACEMENT_3D ( 'NONE', #617, #523, #54 ) ;
#949 = ORIENTED_EDGE ( 'NONE', *, *, #405, .F. ) ;
#950 = CARTESIAN_POINT ( 'NONE',  ( -1.019999999999996687, -29.00000000000000000, -0.2500000000000000000 ) ) ;
#951 = VERTEX_POINT ( 'NONE', #310 ) ;
#952 = ORIENTED_EDGE ( 'NONE', *, *, #750, .T. ) ;
#953 = VERTEX_POINT ( 'NONE', #569 ) ;
#954 = DIRECTION ( 'NONE',  ( 1.196361017915039486E-16, 1.000000000000000000, 0.000000000000000000 ) ) ;
#955 = ORIENTED_EDGE ( 'NONE', *, *, #495, .F. ) ;
#956 = ORIENTED_EDGE ( 'NONE', *, *, #50, .F. ) ;
#957 = AXIS2_PLACEMENT_3D ( 'NONE', #1152, #384, #1062 ) ;
#958 = ORIENTED_EDGE ( 'NONE', *, *, #654, .T. ) ;
#959 = DIRECTION ( 'NONE',  ( -0.000000000000000000, -1.000000000000000000, -0.000000000000000000 ) ) ;
#960 = CARTESIAN_POINT ( 'NONE',  ( 1.019999999999999352, -5.449999999999998401, 0.2500000000000000000 ) ) ;
#961 = ORIENTED_EDGE ( 'NONE', *, *, #108, .T. ) ;
#962 = ADVANCED_FACE ( 'NONE', ( #677 ), #377, .T. ) ;
#963 = ORIENTED_EDGE ( 'NONE', *, *, #92, .T. ) ;
#964 = CARTESIAN_POINT ( 'NONE',  ( 0.000000000000000000, 0.000000000000000000, 0.000000000000000000 ) ) ;
#965 = ORIENTED_EDGE ( 'NONE', *, *, #537, .T. ) ;
#966 = PRODUCT ( 'SFH 4556', 'SFH 4556', '', ( #802 ) ) ;
#967 =( NAMED_UNIT ( * ) SI_UNIT ( $, .STERADIAN. ) SOLID_ANGLE_UNIT ( ) );
#968 = EDGE_CURVE ( 'NONE', #438, #51, #1081, .T. ) ;
#969 = DIRECTION ( 'NONE',  ( -0.000000000000000000, -1.000000000000000000, -0.000000000000000000 ) ) ;
#970 = FACE_OUTER_BOUND ( 'NONE', #676, .T. ) ;
#971 = FACE_OUTER_BOUND ( 'NONE', #691, .T. ) ;
#972 = CARTESIAN_POINT ( 'NONE',  ( -1.519999999999996687, -29.00000000000000000, -0.2500000000000000000 ) ) ;
#973 = DIRECTION ( 'NONE',  ( -0.000000000000000000, -1.000000000000000000, -0.000000000000000000 ) ) ;
#974 = ORIENTED_EDGE ( 'NONE', *, *, #1178, .T. ) ;
#975 = FACE_OUTER_BOUND ( 'NONE', #295, .T. ) ;
#976 = CARTESIAN_POINT ( 'NONE',  ( 1.020000000000000018, 3.061616997868383018E-17, 0.2500000000000000000 ) ) ;
#977 = CIRCLE ( 'NONE', #158, 2.425000000000000266 ) ;
#978 = VERTEX_POINT ( 'NONE', #681 ) ;
#979 = DIRECTION ( 'NONE',  ( 1.000000000000000000, -0.000000000000000000, -0.000000000000000000 ) ) ;
#980 = CARTESIAN_POINT ( 'NONE',  ( -1.570000000000000284, -5.450000000000000178, 0.2500000000000000000 ) ) ;
#981 = VECTOR ( 'NONE', #404, 1000.000000000000000 ) ;
#982 = ORIENTED_EDGE ( 'NONE', *, *, #846, .F. ) ;
#983 = EDGE_CURVE ( 'NONE', #1148, #181, #175, .T. ) ;
#984 = EDGE_CURVE ( 'NONE', #502, #65, #578, .T. ) ;
#985 = ORIENTED_EDGE ( 'NONE', *, *, #818, .F. ) ;
#986 = EDGE_CURVE ( 'NONE', #472, #512, #1001, .T. ) ;
#987 = ADVANCED_FACE ( 'NONE', ( #192 ), #441, .F. ) ;
#988 = LINE ( 'NONE', #671, #566 ) ;
#989 = DIRECTION ( 'NONE',  ( -1.196361017915039486E-16, 1.000000000000000000, -0.000000000000000000 ) ) ;
#990 = ORIENTED_EDGE ( 'NONE', *, *, #1192, .F. ) ;
#991 = FACE_OUTER_BOUND ( 'NONE', #928, .T. ) ;
#992 = ORIENTED_EDGE ( 'NONE', *, *, #983, .T. ) ;
#993 = CARTESIAN_POINT ( 'NONE',  ( -1.570000000000000284, -5.450000000000000178, -0.2500000000000000000 ) ) ;
#994 = DIRECTION ( 'NONE',  ( 0.000000000000000000, 0.000000000000000000, -1.000000000000000000 ) ) ;
#995 = VECTOR ( 'NONE', #1199, 1000.000000000000000 ) ;
#996 = LINE ( 'NONE', #1092, #184 ) ;
#997 = DIRECTION ( 'NONE',  ( 0.000000000000000000, 0.000000000000000000, -1.000000000000000000 ) ) ;
#998 = PRESENTATION_LAYER_ASSIGNMENT (  '', '', ( #775 ) ) ;
#999 = LINE ( 'NONE', #28, #187 ) ;
#1000 =( NAMED_UNIT ( * ) PLANE_ANGLE_UNIT ( ) SI_UNIT ( $, .RADIAN. ) );
#1001 = LINE ( 'NONE', #769, #182 ) ;
#1002 = CARTESIAN_POINT ( 'NONE',  ( 1.570000000000000284, -5.450000000000000178, 0.2500000000000000000 ) ) ;
#1003 = DIRECTION ( 'NONE',  ( -1.000000000000000000, -0.000000000000000000, -0.000000000000000000 ) ) ;
#1004 = LINE ( 'NONE', #915, #191 ) ;
#1005 = LINE ( 'NONE', #7, #590 ) ;
#1006 = EDGE_CURVE ( 'NONE', #438, #451, #1017, .T. ) ;
#1007 = AXIS2_PLACEMENT_3D ( 'NONE', #1172, #350, #11 ) ;
#1008 = FACE_OUTER_BOUND ( 'NONE', #143, .T. ) ;
#1009 = CARTESIAN_POINT ( 'NONE',  ( 1.570000000000000284, -3.649999999999999911, -0.2500000000000004441 ) ) ;
#1010 =( NAMED_UNIT ( * ) SI_UNIT ( $, .STERADIAN. ) SOLID_ANGLE_UNIT ( ) );
#1011 = CARTESIAN_POINT ( 'NONE',  ( 2.425000000000000266, 5.674999999999999822, 0.000000000000000000 ) ) ;
#1012 = VECTOR ( 'NONE', #409, 1000.000000000000000 ) ;
#1013 = LINE ( 'NONE', #499, #202 ) ;
#1014 = CARTESIAN_POINT ( 'NONE',  ( 0.9700000000000003064, -5.450000000000000178, 0.2500000000000000000 ) ) ;
#1015 = FACE_OUTER_BOUND ( 'NONE', #940, .T. ) ;
#1016 = DIRECTION ( 'NONE',  ( -1.196361017915039732E-16, -1.000000000000000000, 0.000000000000000000 ) ) ;
#1017 = LINE ( 'NONE', #468, #199 ) ;
#1018 = FACE_OUTER_BOUND ( 'NONE', #547, .T. ) ;
#1019 = DIRECTION ( 'NONE',  ( 1.000000000000000000, 0.000000000000000000, 0.000000000000000000 ) ) ;
#1020 = DIRECTION ( 'NONE',  ( -0.000000000000000000, -1.000000000000000000, -0.000000000000000000 ) ) ;
#1021 = LINE ( 'NONE', #800, #606 ) ;
#1022 = EDGE_CURVE ( 'NONE', #512, #438, #988, .T. ) ;
#1023 = LINE ( 'NONE', #1102, #189 ) ;
#1024 = VECTOR ( 'NONE', #567, 1000.000000000000000 ) ;
#1025 = ADVANCED_FACE ( 'NONE', ( #580 ), #1171, .T. ) ;
#1026 = CARTESIAN_POINT ( 'NONE',  ( 1.020000000000000018, 3.061616997868383018E-17, -0.2500000000000000000 ) ) ;
#1027 = DIRECTION ( 'NONE',  ( 0.000000000000000000, -0.000000000000000000, -1.000000000000000000 ) ) ;
#1028 = PLANE ( 'NONE',  #922 ) ;
#1029 = PRODUCT_RELATED_PRODUCT_CATEGORY ( 'part', '', ( #966 ) ) ;
#1030 =( NAMED_UNIT ( * ) PLANE_ANGLE_UNIT ( ) SI_UNIT ( $, .RADIAN. ) );
#1031 = COLOUR_RGB ( '',0.2509803921568627416, 0.2509803921568627416, 0.2509803921568627416 ) ;
#1032 = CARTESIAN_POINT ( 'NONE',  ( -1.520000000000000018, -3.061616997868383018E-17, 0.2500000000000000000 ) ) ;
#1033 = SURFACE_STYLE_FILL_AREA ( #117 ) ;
#1034 = SURFACE_STYLE_FILL_AREA ( #371 ) ;
#1035 = CARTESIAN_POINT ( 'NONE',  ( 1.520000000000000018, -3.061616997868383018E-17, 0.2500000000000000000 ) ) ;
#1036 = DIRECTION ( 'NONE',  ( -0.000000000000000000, -1.000000000000000000, -0.000000000000000000 ) ) ;
#1037 = CIRCLE ( 'NONE', #1139, 2.424999999999999822 ) ;
#1038 = VECTOR ( 'NONE', #13, 1000.000000000000000 ) ;
#1039 = EDGE_CURVE ( 'NONE', #48, #1149, #594, .T. ) ;
#1040 = PLANE ( 'NONE',  #1170 ) ;
#1041 = EDGE_CURVE ( 'NONE', #129, #839, #1023, .T. ) ;
#1042 = EDGE_LOOP ( 'NONE', ( #486, #648, #923, #1112 ) ) ;
#1043 = FACE_OUTER_BOUND ( 'NONE', #1042, .T. ) ;
#1044 = VECTOR ( 'NONE', #360, 1000.000000000000000 ) ;
#1045 = LINE ( 'NONE', #484, #1044 ) ;
#1046 = AXIS2_PLACEMENT_3D ( 'NONE', #401, #501, #346 ) ;
#1047 = DIRECTION ( 'NONE',  ( 0.000000000000000000, -0.000000000000000000, 1.000000000000000000 ) ) ;
#1048 = VERTEX_POINT ( 'NONE', #1014 ) ;
#1049 = CIRCLE ( 'NONE', #1179, 2.424999999999999822 ) ;
#1050 = ORIENTED_EDGE ( 'NONE', *, *, #1136, .F. ) ;
#1051 = CARTESIAN_POINT ( 'NONE',  ( 1.520000000000000018, -3.061616997868383018E-17, 0.2500000000000000000 ) ) ;
#1052 = ADVANCED_FACE ( 'NONE', ( #575 ), #865, .F. ) ;
#1053 = FACE_OUTER_BOUND ( 'NONE', #668, .T. ) ;
#1054 = PLANE ( 'NONE',  #1007 ) ;
#1055 = VERTEX_POINT ( 'NONE', #785 ) ;
#1056 = EDGE_CURVE ( 'NONE', #749, #509, #200, .T. ) ;
#1057 = FACE_OUTER_BOUND ( 'NONE', #32, .T. ) ;
#1058 = CARTESIAN_POINT ( 'NONE',  ( -2.424999999999999822, 1.449999999999999067, 1.296871234934297679 ) ) ;
#1059 = MECHANICAL_DESIGN_GEOMETRIC_PRESENTATION_REPRESENTATION (  '', ( #111 ), #687 ) ;
#1060 = DIRECTION ( 'NONE',  ( 0.000000000000000000, 0.000000000000000000, -1.000000000000000000 ) ) ;
#1061 = AXIS2_PLACEMENT_3D ( 'NONE', #375, #439, #560 ) ;
#1062 = DIRECTION ( 'NONE',  ( 1.196361017915039732E-16, -1.000000000000000000, 0.000000000000000000 ) ) ;
#1063 = VECTOR ( 'NONE', #1165, 1000.000000000000000 ) ;
#1064 = EDGE_LOOP ( 'NONE', ( #1126, #39, #33, #1144 ) ) ;
#1065 = LINE ( 'NONE', #1203, #270 ) ;
#1066 = VECTOR ( 'NONE', #763, 1000.000000000000000 ) ;
#1067 = SURFACE_SIDE_STYLE ('',( #870 ) ) ;
#1068 = LINE ( 'NONE', #1189, #279 ) ;
#1069 = DIRECTION ( 'NONE',  ( 1.000000000000000000, -1.224646799147353207E-16, -0.000000000000000000 ) ) ;
#1070 = CARTESIAN_POINT ( 'NONE',  ( -1.570000000000000284, -3.649999999999999911, -0.2500000000000000000 ) ) ;
#1071 = LINE ( 'NONE', #1032, #263 ) ;
#1072 = LINE ( 'NONE', #231, #661 ) ;
#1073 = VERTEX_POINT ( 'NONE', #787 ) ;
#1074 = CYLINDRICAL_SURFACE ( 'NONE', #900, 2.425000000000000266 ) ;
#1075 = VECTOR ( 'NONE', #30, 1000.000000000000000 ) ;
#1076 = VECTOR ( 'NONE', #282, 1000.000000000000000 ) ;
#1077 = VERTEX_POINT ( 'NONE', #604 ) ;
#1078 = LINE ( 'NONE', #307, #680 ) ;
#1079 = DIRECTION ( 'NONE',  ( -1.196361017915039732E-16, 1.000000000000000000, 0.000000000000000000 ) ) ;
#1080 = EDGE_CURVE ( 'NONE', #129, #530, #194, .T. ) ;
#1081 = LINE ( 'NONE', #659, #283 ) ;
#1082 = VECTOR ( 'NONE', #954, 1000.000000000000000 ) ;
#1083 = DIRECTION ( 'NONE',  ( 1.196361017915039732E-16, 1.000000000000000000, 0.000000000000000000 ) ) ;
#1084 = DIRECTION ( 'NONE',  ( 0.000000000000000000, -1.000000000000000000, 0.000000000000000000 ) ) ;
#1085 = VECTOR ( 'NONE', #1095, 1000.000000000000000 ) ;
#1086 = SHAPE_DEFINITION_REPRESENTATION ( #170, #505 ) ;
#1087 = LINE ( 'NONE', #1183, #1075 ) ;
#1088 = CARTESIAN_POINT ( 'NONE',  ( -1.520000000000000018, -3.061616997868383018E-17, 0.2500000000000000000 ) ) ;
#1089 = DIRECTION ( 'NONE',  ( 0.000000000000000000, 0.000000000000000000, -1.000000000000000000 ) ) ;
#1090 = CARTESIAN_POINT ( 'NONE',  ( 2.969768487932331484E-16, 5.674999999999999822, 2.425000000000000266 ) ) ;
#1091 = ADVANCED_FACE ( 'NONE', ( #1015 ), #745, .T. ) ;
#1092 = CARTESIAN_POINT ( 'NONE',  ( -1.570000000000000284, -5.450000000000000178, 0.2500000000000000000 ) ) ;
#1093 = ORIENTED_EDGE ( 'NONE', *, *, #673, .T. ) ;
#1094 = VECTOR ( 'NONE', #689, 1000.000000000000000 ) ;
#1095 = DIRECTION ( 'NONE',  ( -1.196361017915039486E-16, 1.000000000000000000, -0.000000000000000000 ) ) ;
#1096 = ORIENTED_EDGE ( 'NONE', *, *, #415, .F. ) ;
#1097 = DIRECTION ( 'NONE',  ( -1.000000000000000000, 0.000000000000000000, 0.000000000000000000 ) ) ;
#1098 = PRESENTATION_STYLE_ASSIGNMENT (( #761 ) ) ;
#1099 = ORIENTED_EDGE ( 'NONE', *, *, #845, .F. ) ;
#1100 = DIRECTION ( 'NONE',  ( -0.000000000000000000, -0.000000000000000000, -1.000000000000000000 ) ) ;
#1101 = EDGE_LOOP ( 'NONE', ( #934, #956, #652, #901 ) ) ;
#1102 = CARTESIAN_POINT ( 'NONE',  ( -1.570000000000000284, -3.649999999999999911, -2.147366596101027536 ) ) ;
#1103 = ORIENTED_EDGE ( 'NONE', *, *, #772, .T. ) ;
#1104 = CARTESIAN_POINT ( 'NONE',  ( 0.000000000000000000, 5.674999999999999822, 0.000000000000000000 ) ) ;
#1105 = ORIENTED_EDGE ( 'NONE', *, *, #553, .F. ) ;
#1106 = LINE ( 'NONE', #1119, #723 ) ;
#1107 = CARTESIAN_POINT ( 'NONE',  ( 3.367778697655223477E-16, 1.449999999999999067, 2.750000000000001776 ) ) ;
#1108 = ORIENTED_EDGE ( 'NONE', *, *, #1056, .T. ) ;
#1109 = CARTESIAN_POINT ( 'NONE',  ( -1.570000000000000284, -5.450000000000000178, -2.147366596101027536 ) ) ;
#1110 = LINE ( 'NONE', #1150, #717 ) ;
#1111 = EDGE_CURVE ( 'NONE', #302, #44, #1021, .T. ) ;
#1112 = ORIENTED_EDGE ( 'NONE', *, *, #968, .F. ) ;
#1113 = LINE ( 'NONE', #905, #704 ) ;
#1114 = EDGE_CURVE ( 'NONE', #133, #485, #608, .T. ) ;
#1115 = AXIS2_PLACEMENT_3D ( 'NONE', #431, #906, #1027 ) ;
#1116 = COLOUR_RGB ( '',0.7921568627450980005, 0.8196078431372548767, 0.9333333333333333481 ) ;
#1117 = ORIENTED_EDGE ( 'NONE', *, *, #1111, .T. ) ;
#1118 = LINE ( 'NONE', #921, #314 ) ;
#1119 = CARTESIAN_POINT ( 'NONE',  ( -1.520000000000000018, -3.061616997868383018E-17, 0.2500000000000000000 ) ) ;
#1120 = ORIENTED_EDGE ( 'NONE', *, *, #180, .T. ) ;
#1121 = CIRCLE ( 'NONE', #1061, 2.749999999999998668 ) ;
#1122 = CARTESIAN_POINT ( 'NONE',  ( -1.520000000000000018, -5.450000000000000178, 0.2500000000000000000 ) ) ;
#1123 = ORIENTED_EDGE ( 'NONE', *, *, #356, .T. ) ;
#1124 = CARTESIAN_POINT ( 'NONE',  ( -1.019999999999999574, -3.649999999999999911, 0.2500000000000000000 ) ) ;
#1125 = FACE_OUTER_BOUND ( 'NONE', #93, .T. ) ;
#1126 = ORIENTED_EDGE ( 'NONE', *, *, #150, .T. ) ;
#1127 = VECTOR ( 'NONE', #378, 1000.000000000000000 ) ;
#1128 = EDGE_LOOP ( 'NONE', ( #1096, #142, #568, #155 ) ) ;
#1129 = LINE ( 'NONE', #1166, #739 ) ;
#1130 = ORIENTED_EDGE ( 'NONE', *, *, #167, .T. ) ;
#1131 = CARTESIAN_POINT ( 'NONE',  ( 0.000000000000000000, 1.449999999999999067, 0.000000000000000000 ) ) ;
#1132 = VECTOR ( 'NONE', #81, 1000.000000000000000 ) ;
#1133 = ORIENTED_EDGE ( 'NONE', *, *, #34, .F. ) ;
#1134 = CARTESIAN_POINT ( 'NONE',  ( 0.000000000000000000, 0.000000000000000000, 0.000000000000000000 ) ) ;
#1135 = ADVANCED_FACE ( 'NONE', ( #991 ), #613, .T. ) ;
#1136 = EDGE_CURVE ( 'NONE', #74, #832, #996, .T. ) ;
#1137 = LINE ( 'NONE', #436, #332 ) ;
#1138 = ORIENTED_EDGE ( 'NONE', *, *, #772, .F. ) ;
#1139 = AXIS2_PLACEMENT_3D ( 'NONE', #1131, #513, #1089 ) ;
#1140 =( NAMED_UNIT ( * ) SI_UNIT ( $, .STERADIAN. ) SOLID_ANGLE_UNIT ( ) );
#1141 = LINE ( 'NONE', #703, #1132 ) ;
#1142 = ORIENTED_EDGE ( 'NONE', *, *, #828, .F. ) ;
#1143 = DIRECTION ( 'NONE',  ( -0.000000000000000000, -1.000000000000000000, -0.000000000000000000 ) ) ;
#1144 = ORIENTED_EDGE ( 'NONE', *, *, #1114, .F. ) ;
#1145 = CARTESIAN_POINT ( 'NONE',  ( 1.570000000000000284, -3.649999999999999911, -2.147366596101027536 ) ) ;
#1146 = ORIENTED_EDGE ( 'NONE', *, *, #16, .T. ) ;
#1147 = AXIS2_PLACEMENT_3D ( 'NONE', #4, #218, #390 ) ;
#1148 = VERTEX_POINT ( 'NONE', #1182 ) ;
#1149 = VERTEX_POINT ( 'NONE', #171 ) ;
#1150 = CARTESIAN_POINT ( 'NONE',  ( 2.969768487932331484E-16, 0.000000000000000000, 2.425000000000000266 ) ) ;
#1151 = EDGE_CURVE ( 'NONE', #485, #1048, #999, .T. ) ;
#1152 = CARTESIAN_POINT ( 'NONE',  ( -1.020000000000000018, 3.061616997868383018E-17, 0.2500000000000000000 ) ) ;
#1153 = DIRECTION ( 'NONE',  ( 1.000000000000000000, 0.000000000000000000, 0.000000000000000000 ) ) ;
#1154 = DIRECTION ( 'NONE',  ( -0.000000000000000000, -1.000000000000000000, -0.000000000000000000 ) ) ;
#1155 = EDGE_CURVE ( 'NONE', #131, #1055, #584, .T. ) ;
#1156 = CARTESIAN_POINT ( 'NONE',  ( -2.424999999999999822, 0.000000000000000000, -1.296871234934291017 ) ) ;
#1157 = EDGE_CURVE ( 'NONE', #939, #945, #1004, .T. ) ;
#1158 = DIRECTION ( 'NONE',  ( -1.196361017915039486E-16, -1.000000000000000000, 0.000000000000000000 ) ) ;
#1159 = DIRECTION ( 'NONE',  ( 1.196361017915039486E-16, -1.000000000000000000, 0.000000000000000000 ) ) ;
#1160 = ADVANCED_FACE ( 'NONE', ( #587 ), #473, .T. ) ;
#1161 =( GEOMETRIC_REPRESENTATION_CONTEXT ( 3 ) GLOBAL_UNCERTAINTY_ASSIGNED_CONTEXT ( ( #312 ) ) GLOBAL_UNIT_ASSIGNED_CONTEXT ( ( #137, #1000, #967 ) ) REPRESENTATION_CONTEXT ( 'NONE', 'WORKASPACE' ) );
#1162 = DIRECTION ( 'NONE',  ( 0.000000000000000000, 0.000000000000000000, -1.000000000000000000 ) ) ;
#1163 = CARTESIAN_POINT ( 'NONE',  ( 1.519999999999996687, -27.50000000000000000, 0.2500000000000000000 ) ) ;
#1164 = CARTESIAN_POINT ( 'NONE',  ( 1.570000000000000284, -3.649999999999999911, -0.2500000000000000000 ) ) ;
#1165 = DIRECTION ( 'NONE',  ( 0.000000000000000000, -0.000000000000000000, 1.000000000000000000 ) ) ;
#1166 = CARTESIAN_POINT ( 'NONE',  ( 1.570000000000000284, -3.649999999999999911, 0.2500000000000000000 ) ) ;
#1167 = CARTESIAN_POINT ( 'NONE',  ( 0.000000000000000000, 1.449999999999999067, 0.000000000000000000 ) ) ;
#1168 = DIRECTION ( 'NONE',  ( -1.000000000000000000, 0.000000000000000000, 0.000000000000000000 ) ) ;
#1169 = EDGE_CURVE ( 'NONE', #847, #105, #1005, .T. ) ;
#1170 = AXIS2_PLACEMENT_3D ( 'NONE', #599, #223, #1083 ) ;
#1171 = PLANE ( 'NONE',  #644 ) ;
#1172 = CARTESIAN_POINT ( 'NONE',  ( 0.000000000000000000, -27.50000000000000000, 0.000000000000000000 ) ) ;
#1173 = CARTESIAN_POINT ( 'NONE',  ( 2.750000000000001776, 1.449999999999999067, 0.000000000000000000 ) ) ;
#1174 = CARTESIAN_POINT ( 'NONE',  ( 0.9700000000000003064, -5.450000000000000178, -0.2500000000000000000 ) ) ;
#1175 = ADVANCED_FACE ( 'NONE', ( #1008 ), #12, .T. ) ;
#1176 = CARTESIAN_POINT ( 'NONE',  ( 0.000000000000000000, 0.000000000000000000, -0.2500000000000000000 ) ) ;
#1177 = PLANE ( 'NONE',  #301 ) ;
#1178 = EDGE_CURVE ( 'NONE', #530, #1073, #1137, .T. ) ;
#1179 = AXIS2_PLACEMENT_3D ( 'NONE', #686, #433, #97 ) ;
#1180 = SURFACE_STYLE_USAGE ( .BOTH. , #805 ) ;
#1181 = CARTESIAN_POINT ( 'NONE',  ( 0.000000000000000000, 5.674999999999999822, 0.000000000000000000 ) ) ;
#1182 = CARTESIAN_POINT ( 'NONE',  ( 1.520000000000000018, -5.450000000000000178, 0.2500000000000000000 ) ) ;
#1183 = CARTESIAN_POINT ( 'NONE',  ( -0.9700000000000003064, -5.450000000000000178, -2.147366596101027536 ) ) ;
#1184 = CARTESIAN_POINT ( 'NONE',  ( -1.570000000000000284, -5.450000000000000178, 0.2500000000000000000 ) ) ;
#1185 = EDGE_CURVE ( 'NONE', #90, #747, #1141, .T. ) ;
#1186 = CARTESIAN_POINT ( 'NONE',  ( 0.9700000000000003064, -3.649999999999999911, 0.2500000000000000000 ) ) ;
#1187 = PLANE ( 'NONE',  #248 ) ;
#1188 = CARTESIAN_POINT ( 'NONE',  ( 1.019999999999996687, -27.50000000000000000, -0.2500000000000000000 ) ) ;
#1189 = CARTESIAN_POINT ( 'NONE',  ( 0.9700000000000003064, -3.649999999999999911, -2.147366596101027536 ) ) ;
#1190 = CARTESIAN_POINT ( 'NONE',  ( -1.570000000000000284, -3.649999999999999911, 0.2500000000000000000 ) ) ;
#1191 = DIRECTION ( 'NONE',  ( 0.000000000000000000, 0.000000000000000000, -1.000000000000000000 ) ) ;
#1192 = EDGE_CURVE ( 'NONE', #521, #335, #1129, .T. ) ;
#1193 = EDGE_CURVE ( 'NONE', #472, #51, #729, .T. ) ;
#1194 = CARTESIAN_POINT ( 'NONE',  ( 0.9700000000000003064, -3.649999999999999911, -0.2500000000000000000 ) ) ;
#1195 = CARTESIAN_POINT ( 'NONE',  ( 0.000000000000000000, 5.674999999999999822, 0.000000000000000000 ) ) ;
#1196 = CARTESIAN_POINT ( 'NONE',  ( -1.020000000000000018, 3.061616997868383018E-17, 0.2500000000000000000 ) ) ;
#1197 = AXIS2_PLACEMENT_3D ( 'NONE', #399, #488, #464 ) ;
#1198 = DIRECTION ( 'NONE',  ( 0.000000000000000000, 1.000000000000000000, 0.000000000000000000 ) ) ;
#1199 = DIRECTION ( 'NONE',  ( 1.000000000000000000, 0.000000000000000000, 0.000000000000000000 ) ) ;
#1200 = EDGE_CURVE ( 'NONE', #342, #951, #328, .T. ) ;
#1201 = AXIS2_PLACEMENT_3D ( 'NONE', #765, #1143, #364 ) ;
#1202 = DIRECTION ( 'NONE',  ( -1.000000000000000000, -1.224646799147353207E-16, -0.000000000000000000 ) ) ;
#1203 = CARTESIAN_POINT ( 'NONE',  ( 1.020000000000000018, 3.061616997868383018E-17, 0.2500000000000000000 ) ) ;
#1204 = PLANE ( 'NONE',  #674 ) ;
#1205 = EDGE_CURVE ( 'NONE', #839, #74, #325, .T. ) ;
#1206 = PLANE ( 'NONE',  #957 ) ;
#1207 = PRESENTATION_LAYER_ASSIGNMENT (  '', '', ( #183 ) ) ;
ENDSEC;
END-ISO-10303-21;
